<svg width="1080" height="1080" viewBox="0 0 1080 1080" fill="none" xmlns="http://www.w3.org/2000/svg" xmlns:xlink="http://www.w3.org/1999/xlink">
<rect width="1080" height="1080" rx="540" fill="url(#paint0_linear_1881_375)"/>
<rect width="1080" height="1080" rx="540"/>
<path d="M524.5 329.254C534.693 327.201 542.236 328.136 545.584 328.797C546.868 329.05 548.144 329.419 549.36 329.902C550.175 330.225 551.339 330.709 553 331.434C557.977 333.604 560.973 336.408 561 336.434C561 336.434 564 339.434 565.5 341.434C566.992 343.423 568.978 345.906 569 345.934L573.5 352.434L581 365.434L613.5 420.814L683 531.814L793.605 708.783C805.286 727.473 791.795 751.706 769.756 751.623L555.75 750.814L310.465 749.888C298.763 749.843 288.323 742.527 284.288 731.543L283.563 729.571C282.529 726.755 282 723.779 282 720.779C282 712.865 283.395 705.012 286.119 697.581L286.454 696.666C287.149 694.771 288.051 692.957 289.142 691.259L322.5 639.314L394 522.314L463 412.314L496 357.314C496 357.314 510.5 332.074 524.5 329.254ZM543.578 452.549C539.62 446.298 530.48 446.36 526.607 452.664L398.356 661.478C394.264 668.14 399.059 676.711 406.878 676.711H667.333C675.213 676.711 679.997 668.02 675.782 661.362L543.578 452.549Z" fill="white"/>
<defs>
<linearGradient id="paint0_linear_1881_375" x1="540" y1="0" x2="540" y2="1080" gradientUnits="userSpaceOnUse">
<stop stop-color="#3A1931"/>
<stop offset="0.49" stop-color="#D32A2A"/>
<stop offset="1" stop-color="#D18F31"/>
</linearGradient>
</defs>
</svg>
