<svg width="1468" height="644" viewBox="0 0 1468 644" fill="none" xmlns="http://www.w3.org/2000/svg">
<path d="M137.202 261.932C137.101 263.311 136.414 264.568 135.92 265.847C135.704 266.405 135.488 266.963 135.271 267.521M135.271 267.521C134.467 269.585 133.65 271.64 132.764 273.677C131.132 277.431 129.392 280.984 127.331 284.45M135.271 267.521C133.788 268.286 132.294 269.021 130.788 269.694C130.095 270.004 132.367 266.003 132.487 265.813C135.45 261.135 138.977 256.719 142.317 252.296C146.143 247.228 149.998 242.177 153.845 237.125C155.693 234.697 157.576 232.152 159.843 230.071C160.059 229.872 162.296 227.82 161.646 229.328C160.909 231.039 159.972 232.691 159.167 234.374C155.995 241.001 153.423 247.942 150.915 254.827C150.33 256.432 149.741 258.035 149.149 259.636M135.271 267.521C137.593 266.322 139.889 265.049 142.163 263.819M127.331 284.45C126.717 285.484 126.074 286.51 125.397 287.532C121.954 292.727 126.536 286.249 132.28 278.027M127.331 284.45C128.644 282.561 129.943 280.663 131.326 278.824C131.73 278.287 132.456 277.29 132.28 278.027M127.331 284.45C126.41 285.777 125.481 287.099 124.512 288.393C115.49 300.441 104.369 311.324 96.6882 324.27C96.6212 324.383 94.1523 328.548 94.7293 328.86C95.4621 329.257 98.4078 325.266 98.7512 324.878C99.0315 324.56 99.3097 324.242 99.5857 323.922M132.28 278.027C135.634 273.226 139.384 267.832 142.163 263.819M132.28 278.027C132.254 278.135 132.209 278.28 132.14 278.47C130.375 283.361 128.383 288.101 126.315 292.882C125.491 294.788 124.916 296.781 124.287 298.754C123.886 300.013 124.847 298.636 125.102 298.315C126.922 296.021 128.33 293.48 129.956 291.059C132.088 287.885 134.466 284.851 136.769 281.794C139.451 278.234 142.252 274.718 144.93 271.122M142.163 263.819C143.003 262.607 143.754 261.521 144.379 260.615C144.799 260.007 148.712 254.12 148.748 257.342C148.758 258.216 148.736 259.086 148.685 259.951M142.163 263.819C142.371 263.707 142.578 263.595 142.785 263.484C144.771 262.417 146.761 261.241 148.685 259.951M148.685 259.951C148.662 260.346 148.632 260.74 148.597 261.132M148.685 259.951C148.84 259.847 148.995 259.742 149.149 259.636M148.597 261.132C148.4 263.316 148.02 265.467 147.494 267.588M148.597 261.132C147.366 264.46 146.134 267.786 144.93 271.122M148.597 261.132C148.781 260.634 148.965 260.135 149.149 259.636M147.494 267.588C147.423 267.877 147.348 268.166 147.271 268.455M147.494 267.588C148.103 266.723 148.7 265.851 149.282 264.971M147.494 267.588C146.658 268.777 145.801 269.954 144.93 271.122M147.271 268.455C146.369 271.824 145.108 275.115 143.634 278.335C142.884 279.973 141.977 281.497 141.086 283.06C140.837 283.496 141.63 280.598 141.71 280.36C141.971 279.577 142.236 278.794 142.503 278.014M147.271 268.455C145.531 271.556 143.931 274.749 142.503 278.014M147.271 268.455C147.731 267.635 148.2 266.822 148.679 266.016C148.884 265.67 149.085 265.321 149.282 264.971M142.503 278.014C143.292 275.708 144.104 273.412 144.93 271.122M142.503 278.014C140.81 281.882 139.36 285.849 138.208 289.878C138.182 289.968 138.101 290.354 137.983 290.921M149.149 259.636C152.45 257.379 155.534 254.779 158.04 251.806C158.166 251.657 159.423 249.839 158.768 251.098C156.299 255.847 153.558 260.463 151.071 265.206C148.529 270.054 146.221 275.01 143.599 279.82C141.598 283.492 139.61 287.101 137.983 290.921M137.983 290.921C137.674 291.645 137.379 292.377 137.098 293.118C137.078 293.171 134.931 298.957 135.798 298.957C136.302 298.957 137.48 293.322 137.983 290.921ZM149.282 264.971C150.182 263.376 151.024 261.746 151.99 260.194C153.174 258.29 152.26 260.159 151.765 261.004C150.976 262.348 150.145 263.668 149.282 264.971ZM99.5857 323.922C102.522 320.523 105.228 316.993 107.899 313.421M99.5857 323.922C99.8574 323.462 100.134 323.004 100.415 322.549C102.537 319.116 105.155 316.231 107.899 313.421M99.5857 323.922C98.3996 325.934 97.3132 328.002 96.3935 330.143C95.9291 331.224 95.7124 332.554 95.076 333.552C94.3354 334.713 93.5862 335.713 93.0477 336.994C92.4849 338.333 90.8318 340.654 91.4007 342.192C91.9006 343.544 95.2054 344.95 96.4975 345.179C100.17 345.829 103.758 345.77 107.558 345.77C110.191 345.77 111.838 345.152 114.18 344.251C115.955 343.568 117.895 343.328 119.658 342.799C120.862 342.439 121.897 342.485 123.091 341.821C125.771 340.33 127.275 337.973 129.141 335.678C131.195 333.153 132.876 330.877 132.834 327.611C132.81 325.814 132.359 323.874 132.054 322.093C131.166 316.906 132.745 311.869 128.985 307.293C125.424 302.96 120.57 315.268 120.074 317.199C119.393 319.852 119.117 322.729 118.636 325.434C118.514 326.12 118.367 326.798 118.204 327.472M107.899 313.421C109.133 311.773 110.359 310.115 111.597 308.458C112.632 307.073 113.455 304.762 115.342 304.762C117.174 304.762 113.903 307.279 113.348 307.867C111.547 309.775 109.696 311.582 107.899 313.421ZM118.204 327.472C117.505 330.373 116.515 333.194 115.983 336.15C115.902 336.603 115.121 340.568 115.931 340.707C118.419 341.134 120.403 337.374 120.907 335.543C121.801 332.293 120.409 329.612 118.204 327.472ZM118.204 327.472C117.213 326.51 116.058 325.657 114.874 324.911C110.626 322.237 109.708 324.068 107.402 327.544C106.732 328.554 105.559 330.322 104.666 332.213M104.666 332.213C103.747 334.16 103.125 336.238 103.656 337.753M104.666 332.213C104.703 332.173 104.74 332.133 104.776 332.094L104.801 332.067C105.878 330.903 107.169 329.055 108.806 328.59C112.048 327.67 112.847 331.384 112.204 333.619C111.667 335.486 108.974 340.304 106.448 339.812C104.855 339.502 104.005 338.75 103.656 337.753M104.666 332.213C103.677 333.284 102.716 334.372 102.582 335.864C102.523 336.534 103.003 337.173 103.656 337.753M103.656 337.753C104.527 338.527 105.705 339.196 106.31 339.694M158.852 220.854C162.812 217.453 166.957 214.162 171.218 211.08M171.218 211.08C172.794 209.941 174.386 208.83 175.99 207.753C176.487 207.419 176.971 207.088 177.441 206.757M171.218 211.08C171.197 211.148 171.175 211.216 171.154 211.284C169.791 215.622 168.858 219.968 168.04 224.345M171.218 211.08C171.635 209.769 172.094 208.476 172.589 207.198M177.441 206.757C181.664 203.78 184.778 200.797 186.673 195.874M177.441 206.757C178.234 205.322 179.016 203.882 179.776 202.431C179.975 202.049 180.168 201.64 180.36 201.218M177.441 206.757C174.838 211.468 172.121 216.128 169.734 220.956C169.182 222.075 168.605 223.204 168.04 224.345M186.673 195.874C186.705 195.792 186.736 195.708 186.767 195.625C187.445 193.801 187.681 191.677 187.69 189.476M186.673 195.874C186.573 195.962 186.473 196.049 186.373 196.136C184.407 197.851 182.333 199.495 180.36 201.218M186.673 195.874C188.643 194.15 190.584 192.377 192.354 190.459M187.69 189.476C187.703 186.373 187.268 183.115 186.989 180.318M187.69 189.476C188.258 188.312 188.809 187.146 189.396 186.029C190.476 183.976 191.494 181.882 192.48 179.777M187.69 189.476C186.438 192.04 185.099 194.588 183.088 196.546C181.867 197.734 181.11 199.576 180.36 201.218M186.989 180.318C186.946 179.881 186.906 179.456 186.873 179.044C186.774 177.826 186.708 176.615 186.632 175.406M186.989 180.318C185.303 182.596 184.035 185.565 182.772 187.641C178.933 193.952 175.242 200.347 172.589 207.198M186.989 180.318C187.663 179.408 188.404 178.609 189.238 178.02C189.52 177.822 189.856 177.651 190.226 177.499M186.632 175.406C186.6 174.903 186.566 174.399 186.527 173.896M186.632 175.406C187.92 175.746 189.134 176.549 190.226 177.499M186.632 175.406C186.365 175.336 186.094 175.285 185.821 175.257C185.276 175.201 185.792 174.575 186.527 173.896M186.527 173.896C186.446 172.85 186.343 171.804 186.189 170.754C186.032 169.68 185.789 166.043 184.375 168.451C180.041 175.835 178.455 185.008 176.148 193.091C175.198 196.422 174.189 199.748 173.309 203.096C173.24 203.361 172.819 205.754 172.589 207.198M186.527 173.896C187.376 173.112 188.518 172.26 188.66 172.135C193.313 168.059 197.78 163.95 202.451 160.123M172.589 207.198C172.486 207.84 172.421 208.295 172.442 208.29C174.364 207.874 177.149 204.184 178.514 202.891C179.115 202.322 179.732 201.766 180.36 201.218M192.354 190.459C193.181 189.562 193.971 188.634 194.71 187.664M192.354 190.459C193.008 189.446 193.825 188.282 194.71 187.664M192.354 190.459C191.972 191.05 191.646 191.59 191.394 191.94C188.252 196.298 185.089 200.556 182.299 205.143C176.487 214.7 171.289 224.738 166.177 234.688M194.71 187.664C194.806 187.538 194.901 187.411 194.995 187.283C197.087 184.449 195.219 182.938 193.181 180.579C192.96 180.323 192.726 180.054 192.48 179.777M194.71 187.664C195.05 187.426 195.401 187.268 195.757 187.232C197.279 187.076 198.777 184.483 199.779 183.291C202.127 180.497 204.176 179.761 207.507 178.302C208.863 177.708 210.626 177.853 210.871 176.178C210.892 176.034 210.907 175.891 210.916 175.75M192.48 179.777C191.811 179.025 191.053 178.22 190.226 177.499M192.48 179.777C192.994 178.679 193.499 177.579 194.001 176.479M190.226 177.499C191.365 177.034 192.825 176.761 194.001 176.479M202.451 160.123C204.636 158.332 206.865 156.603 209.179 154.967M202.451 160.123C202.231 159.519 202.108 158.916 202.118 158.318C202.157 156.038 206.692 155.418 209.179 154.967M202.451 160.123C203.514 163.054 206.832 166.018 208.059 168.604C208.636 169.822 209.432 170.992 210.038 172.206M209.179 154.967C211.395 153.4 213.688 151.92 216.093 150.553M209.179 154.967C209.617 154.887 209.991 154.813 210.267 154.736C211.808 154.303 212.851 153.708 214.21 153.047C215.192 152.569 215.75 151.65 216.093 150.553M216.093 150.553C217.327 149.852 218.59 149.181 219.887 148.544C225.935 145.573 232.159 143.03 238.34 140.356C240.549 139.4 244.31 143.915 244.911 145.524C245.841 148.015 244.201 149.152 242.046 149.925C238.75 151.108 235.262 151.297 232.005 152.689C231.057 153.094 230.139 153.593 229.222 154.102M216.093 150.553C216.7 148.613 216.634 146.114 217.048 144.501C218.096 140.421 219.691 137.578 221.99 134.061C223.424 131.867 224.736 129.432 225.933 127.101C226.82 125.373 227.054 123.555 229.35 123.673C231.177 123.766 231.887 125.522 232.662 126.794C233.124 127.554 232.984 128.336 233.608 128.944C234.867 130.169 236.279 131.217 237.656 132.321C239.11 133.486 241.606 134.272 242.808 135.443C245.393 137.959 248.115 141.151 249.879 144.322C252.096 148.306 255.067 151.87 257.239 155.887C260.029 161.047 262.86 166.156 265.755 171.265C268.843 176.713 273.761 182.464 274.666 188.716C275.654 195.531 277.804 202.58 280.081 209.084C280.686 210.811 281.258 212.545 281.805 214.285M229.222 154.102C227.63 154.983 226.041 155.89 224.303 156.373C222.726 156.812 220.9 157.138 219.179 157.674M229.222 154.102C228.222 153.822 227.39 153.807 226.984 154.301C226.667 154.687 225.128 154.861 224.592 154.992C222.88 155.408 221.161 156.348 219.703 157.295C219.586 157.371 219.405 157.503 219.179 157.674M229.222 154.102C231.566 154.757 234.838 156.869 235.737 157.295C238.32 158.518 240.332 159.043 241.178 161.721C241.825 163.765 243.496 165.696 244.908 167.328L245.016 167.453C246.738 169.443 248.633 171.285 250.562 173.082C251.417 173.878 253.724 175.301 253.953 176.639C254.17 177.907 256.854 179.821 257.633 180.784C258.812 182.24 259.991 183.644 260.787 185.415C262.82 189.937 260.483 195.392 262.575 199.667C264.692 203.996 268.953 206.395 272.669 209.237C275.264 211.222 278.439 212.931 281.805 214.285M219.179 157.674C216.982 158.36 214.956 159.39 213.842 161.44C213.322 162.396 217.503 158.946 219.179 157.674ZM281.805 214.285C285.883 215.925 290.243 217.044 294.195 217.501M281.805 214.285C282.72 217.197 283.561 220.126 284.357 223.066M294.195 217.501C294.275 217.51 294.354 217.519 294.433 217.527C296.33 217.735 299.579 216.735 297.009 214.764C296.727 214.547 294.612 212.412 294.275 213.331C293.843 214.509 293.898 215.968 294.195 217.501ZM294.195 217.501C294.747 220.345 296.134 223.442 296.799 225.46C298.55 230.78 300.476 236.138 302.592 241.438M302.592 241.438C305.749 249.344 309.329 257.122 313.385 264.455C316.229 269.597 319.153 274.705 321.612 280.038C322.579 282.134 323.486 284.415 324.554 286.545M302.592 241.438C303.033 242.114 303.357 242.64 303.528 242.961C309.734 254.627 317.128 265.544 321.507 278.067C322.499 280.904 323.519 283.728 324.554 286.545M302.592 241.438C299.321 236.418 289.61 223.115 288.256 223.848C287.754 224.119 287.382 224.695 286.836 224.283C286.745 224.213 286.579 224.017 286.399 223.784M324.554 286.545C324.965 287.364 325.399 288.161 325.87 288.916C328.559 293.226 329.972 287.693 329.603 284.822C329.046 280.482 326.058 275.872 324.188 271.901C322.061 267.384 319.12 263.496 316.066 259.516C315.084 258.237 311.61 254.933 313.017 255.755C313.588 256.089 314.088 256.478 314.699 256.753C327.561 262.532 330.314 280.637 334.387 292.14C336.491 298.083 338.408 303.952 339.959 310.052C340.263 311.244 340.361 312.861 341.116 313.89C343.177 316.698 345.037 319.835 345.847 323.204C346.174 324.561 349.812 330.346 347.635 330.47C346.327 330.545 348.103 333.505 346.426 333.208C344.378 332.846 342.228 331.468 340.695 330.215C337.52 327.618 334.111 326.6 339.329 324.713C341.086 324.078 344.26 321.249 342.115 319.161C340.42 317.511 336.864 314.91 333.764 312.689M324.554 286.545C327.33 294.101 330.217 301.609 332.968 309.182C333.26 309.987 333.465 310.792 333.607 311.599M333.764 312.689C333.445 312.46 333.131 312.235 332.824 312.016M333.764 312.689C333.99 314.671 333.914 316.672 333.914 318.726C333.914 318.804 333.926 318.889 333.947 318.98M333.764 312.689C333.729 312.379 333.687 312.07 333.635 311.761M332.824 312.016C329.203 309.43 326.606 307.606 329.182 308.926C329.818 309.252 332.829 311.011 333.607 311.599M332.824 312.016C332.968 311.746 333.169 311.58 333.441 311.689C333.519 311.721 333.584 311.745 333.635 311.761M332.824 312.016C332.587 312.46 332.501 313.184 332.494 313.429C332.434 315.533 332.863 317.251 333.947 318.98M333.607 311.599C333.825 311.764 333.868 311.837 333.635 311.761M333.607 311.599C333.617 311.653 333.626 311.707 333.635 311.761M333.947 318.98C334.076 319.185 334.213 319.39 334.361 319.596C336.37 322.408 334.244 320.225 333.947 318.98ZM286.399 223.784C285.909 223.151 285.306 222.246 285.759 222.875C285.976 223.177 286.189 223.48 286.399 223.784ZM286.399 223.784C287.53 225.422 288.56 227.089 289.521 228.779M289.521 228.779C293.269 235.365 295.981 242.286 299.585 249.051C301.817 253.242 304.5 257.204 306.991 261.24M289.521 228.779C290.759 230.169 291.952 231.588 293.014 233.085C299.094 241.651 303.099 251.417 306.991 261.24M289.521 228.779C287.813 226.861 286.018 224.999 284.357 223.066M306.991 261.24C308.325 263.401 309.604 265.583 310.73 267.832C312.908 272.184 315.243 276.698 317.722 280.882C319.713 284.241 322.008 287.617 324.609 290.554C326.059 292.192 325.607 292.449 323.952 291.322C321.573 289.701 319.741 288.965 318.3 286.46C313.734 278.523 310.406 269.86 306.991 261.24ZM284.357 223.066C284.12 222.791 283.886 222.514 283.656 222.236C282.418 220.739 280.404 220.171 279.214 218.756C278.093 217.422 276.79 216.092 275.507 214.876M284.357 223.066C286.009 229.17 287.464 235.323 288.966 241.477C289.09 241.987 290.779 245.903 290.175 244.497C289.141 242.094 287.993 239.788 287.073 237.332C284.983 231.753 282.743 226.244 279.687 221.084C278.42 218.944 277.036 216.854 275.507 214.876M275.507 214.876C275.358 214.735 275.209 214.595 275.061 214.457C274.718 214.138 274.412 213.637 274.093 213.142M275.507 214.876C275.089 214.335 274.66 213.803 274.219 213.28C274.184 213.238 274.141 213.192 274.093 213.142M274.093 213.142C273.685 212.509 273.254 211.886 272.695 211.668C272.05 211.417 273.497 212.527 274.093 213.142ZM210.038 172.206C210.597 173.325 210.996 174.482 210.916 175.75M210.038 172.206C209.692 172.303 209.348 172.398 209.005 172.494C208.227 172.71 207.447 172.92 206.665 173.127M210.038 172.206C214.639 170.922 219.453 169.454 222.49 165.841C223.773 164.314 225.166 163.119 226.275 161.44C226.578 160.981 226.984 159.41 226.984 159.956C226.984 162.9 226.211 165.638 224.04 167.785C221.295 170.502 215.803 174.948 211.844 175.615C211.599 175.656 211.278 175.705 210.916 175.75M210.916 175.75C209.716 175.899 208.074 176 207.323 175.615C206.969 175.434 207.07 174.534 207.007 174.233C206.922 173.828 206.809 173.462 206.665 173.127M166.177 234.688C165.715 235.587 165.254 236.486 164.793 237.383C164.268 238.404 163.583 239.047 162.927 239.942C162.764 240.163 163.968 241.128 164.532 241.604M166.177 234.688C166.136 234.904 166.096 235.12 166.054 235.336C165.655 237.434 165.277 239.585 164.532 241.604M166.177 234.688C166.828 231.215 167.399 227.771 168.04 224.345M164.532 241.604C164.636 241.692 164.719 241.763 164.767 241.81C165.623 242.643 163.001 246.131 163.111 244.957C163.183 244.176 163.739 243.448 164.057 242.757C164.231 242.378 164.388 241.994 164.532 241.604ZM168.04 224.345C166.623 227.204 165.273 230.14 164.53 233.187C163.794 236.204 162.684 239.098 161.271 241.887C157.765 248.801 152.466 254.546 147.76 260.668C145.466 263.652 142.536 267.115 141.609 270.852C138.909 281.739 139.694 292.839 137.272 303.757C135.905 309.916 134.049 315.592 134.748 321.72C135 323.919 135.394 326.084 135.699 328.261M194.001 176.479C194.271 176.414 194.526 176.349 194.758 176.28C198.695 175.127 202.696 174.176 206.665 173.127M194.001 176.479C194.175 176.097 194.348 175.715 194.522 175.334C195.075 174.116 195.445 171.04 196.493 170.165C197.235 169.546 197.509 168.525 198.596 168.374C200.529 168.105 202.956 169.719 204.431 170.677C205.513 171.379 206.23 172.111 206.665 173.127M135.699 328.261C135.951 330.054 136.142 331.857 136.142 333.694L136.142 333.857C136.141 336.969 136.141 339.756 137.193 342.752C137.702 344.203 138.359 347.407 140.4 347.512C141.207 347.553 141.749 347.051 142.529 347.051C147.704 347.051 153.074 346.591 158.327 346.591C164.607 346.591 170.248 348.58 176.464 348.996C180.064 349.236 184.209 349.974 187.714 348.791C190.446 347.869 192.819 346.223 195.494 345.209C201.846 342.8 208.162 340.942 214.893 342.087C222.581 343.396 230.317 343.429 237.972 344.39C244.453 345.204 250.783 345.804 257.318 346.13C263.093 346.418 268.825 346.702 274.614 346.565C278.132 346.481 281.115 345.519 284.497 344.774C287.861 344.032 291.101 343.988 294.275 342.497C295.283 342.023 296.017 341.948 297.114 341.985C300.754 342.107 307.692 344.786 310.73 341.985C313.95 339.016 315.515 335.503 314.909 330.982C314.443 327.499 311.393 327.196 308.548 326.786C302.78 325.954 297.082 324.483 291.226 324.483C277.376 324.483 263.768 324.936 249.958 326.069C234.146 327.367 218.206 325.748 202.434 327.144C195.77 327.734 189.023 326.786 182.352 326.786C177.608 326.786 172.988 325.706 168.315 325.046C164.816 324.551 161.279 324.283 157.748 324.125C155.922 324.043 153.308 323.583 151.519 324.253C149.793 324.899 147.869 325.104 146.104 325.66C144.598 326.134 143.347 327.775 142.03 328.142C139.806 328.761 137.815 328.44 135.699 328.261ZM135.699 328.261C135.072 328.208 134.434 328.168 133.776 328.168M369.425 346.668C367.745 346.341 366.56 342.691 366.059 341.325C365.403 339.537 363.631 338.95 363.004 337.242C361.191 332.3 360.894 327.08 357.515 322.725C353.981 318.169 350.349 315.243 345.294 312.291C342.423 310.613 342.394 309.989 342.394 306.746C342.394 304.509 341.859 301.777 341.359 299.588C340.372 295.267 337.073 290.812 333.902 287.793C332.247 286.217 329.804 285.323 328.31 283.609C324.734 279.506 319.278 276.783 315.364 272.973C307.126 264.954 302.109 254.721 297.551 244.392C294.554 237.601 290.621 231.304 287.66 224.531C286.022 220.783 283.416 218.049 281.239 214.752C279.259 211.753 276.461 209.706 274.922 206.334C273.925 204.152 272.483 202.069 271.763 199.781C271.281 198.248 271.348 196.671 270.986 195.144C269.315 188.092 270.682 181.033 265.031 175.636C262.449 173.17 258.975 171.369 256.746 168.579C254.245 165.448 252.086 162.162 249.859 158.851C248.341 156.593 230.775 126.68 226.35 130.27C225.738 130.766 225.749 129.794 225.521 129.262C224.903 127.817 220.918 133.368 220.343 134.05C216.193 138.977 212.48 143.343 209.106 148.769C205.244 154.981 203.365 162.173 202.012 169.285C201.647 171.204 201.424 174.315 200.614 176.09C199.912 177.628 199.76 179.297 198.957 180.879C197.818 183.122 195.802 184.838 194.763 187.079C191.879 193.294 189.577 199.933 186.529 206.032C182.108 214.879 176.161 223.545 170.295 231.538C164.912 238.875 159.629 246.263 154.113 253.49C144.668 265.867 132.242 278.137 128.3 293.489C126.214 301.61 125.794 310.509 124.986 318.818C124.285 326.013 124.286 333.194 124.287 340.408L124.287 341.023C124.287 344.522 126.123 344.226 129.491 342.938C131.012 342.356 135.472 340.967 135.472 338.956V336.461C135.472 334.977 134.709 332.292 136.947 332.655C140.105 333.167 142.835 335.333 145.88 336.259C151 337.817 155.739 338.956 161.13 338.956C164.56 338.956 167.962 337.84 171.409 337.368C177.165 336.58 182.925 336.174 188.693 335.968M188.693 335.968C196.695 335.681 204.712 335.78 212.757 335.78C223.594 335.78 234.397 335.594 245.225 335.352C256.678 335.096 268.792 333.677 280.204 334.999C285.142 335.571 290.008 336.718 294.908 337.69M188.693 335.968C189.422 336.262 190.189 336.508 191.008 336.688C207.555 340.325 224.285 341.25 241.134 342.358C250.609 342.982 259.696 345.417 269.122 346.215C271.353 346.403 273.511 346.572 275.75 346.694C277.745 346.801 279.783 347.794 281.783 347.55C283.116 347.388 285.495 345.468 286.443 344.602C287.9 343.272 289.124 341.694 290.638 340.367C291.79 339.358 293.618 339.054 294.625 337.998C294.723 337.896 294.817 337.793 294.908 337.69M188.693 335.968C184.29 334.187 181.289 330.607 176.716 328.774C172.564 327.109 168.505 326.747 164.133 327.841C158.384 329.28 154.066 329.449 148.21 328.572C147.182 328.418 146.411 327.807 145.466 327.64C143.74 327.334 141.89 327.446 140.132 327.161M294.908 337.69C297.381 338.18 299.862 338.626 302.367 338.931C307.634 339.572 312.941 339.41 318.238 339.41L318.661 339.41C325.106 339.409 331.411 339.408 337.527 341.224C340.09 341.985 342.641 342.714 345.268 343.241C345.917 343.371 347.224 343.446 348.516 343.613M294.908 337.69C296.287 336.134 297.038 334.458 298.379 333.033C300.201 331.099 302.77 330.154 304.93 328.698C307.82 326.751 312.292 324.892 315.83 324.892C318.495 324.892 321.186 325.016 323.83 324.64C326.45 324.268 330.857 323.049 333.255 324.666C334.612 325.58 334.58 329.049 334.938 330.488C335.528 332.858 337.18 334.274 339.08 335.705C342.325 338.148 345.211 341.236 348.516 343.613M348.516 343.613C349.859 343.787 351.186 344.061 351.741 344.602C351.979 344.833 349.847 344.515 349.592 344.35C349.228 344.113 348.87 343.867 348.516 343.613ZM254.662 179.408C254.545 179.408 254.421 179.432 254.294 179.476M254.294 179.476C253.237 179.838 251.921 181.569 252.311 182.47C253.292 184.733 256.114 186.835 257.861 188.429C259.769 190.172 261.83 191.512 264.035 192.673M254.294 179.476C257.326 184.009 260.63 188.283 264.035 192.673M254.294 179.476C252.381 176.617 250.576 173.655 248.921 170.496C245.588 164.132 242.226 158.022 238.041 152.18C232.729 144.765 227.524 137.497 224.537 128.834C223.531 125.919 222.47 122.886 220.327 120.743C219.213 119.629 215.154 128.332 214.203 129.6C210.944 133.946 209.754 139.831 208.626 145.018C206.923 152.852 203.696 161.25 199.769 168.254C196.473 174.134 190.325 177.561 188.233 183.837M264.035 192.673C265.157 193.264 266.315 193.807 267.511 194.334C272.136 196.372 277.507 197.806 281.835 200.403C287.052 203.533 286.333 207.433 288.123 212.486C289.215 215.57 289.563 216.443 291.786 219.101C298.858 227.56 308.51 238.305 308.297 249.992C308.246 252.834 308.061 254.598 308.571 257.537C309.001 260.018 309.299 262.362 309.664 264.682M264.035 192.673C264.77 193.621 265.51 194.574 266.253 195.537C273.933 205.487 279.684 216.155 284.405 227.795C288.429 237.718 292.228 247.495 299.604 255.514C302.692 258.872 306.124 261.84 309.664 264.682M309.664 264.682C310.089 267.376 310.604 270.038 311.523 272.846C313.181 277.91 316.072 279.365 320.763 281.375C325.055 283.215 328.534 285.828 331.425 289.522C333.763 292.51 333.488 296.456 334.268 299.964C334.932 302.953 334.328 306.246 334.869 309.314C335.396 312.301 336.619 317.286 338.915 319.374C342.038 322.213 345.091 325.422 348.1 328.395C348.265 328.557 348.429 328.72 348.593 328.881M309.664 264.682C315.237 269.156 321.08 273.319 326.285 278.204C334.766 286.163 341.212 296.401 343.398 307.947C344.743 315.048 346.496 321.979 348.593 328.881M348.593 328.881C351.316 331.564 354.006 334.179 356.411 337.143L356.446 337.187C357.671 338.696 358.985 340.315 359.363 342.282C359.769 344.393 361.122 345.727 358.652 345.727C352.736 345.727 346.813 347.824 340.883 348.679C334.956 349.533 330.037 347.676 324.262 346.82C321.247 346.373 318.497 347.203 315.569 347.203C313.465 347.203 314.537 345.994 315.514 344.797C319.42 340.014 323.508 335.202 326.395 329.707C327.75 327.128 328.643 323.482 327.871 320.522C326.994 317.162 320.425 313.853 321.091 310.298C321.133 310.076 330.62 314.613 331.807 315.109C334.615 316.282 333.627 317.094 334.486 320.084C336.381 326.681 338.189 334.382 344.109 338.51C344.652 338.888 352.466 342.672 352.583 340.314C352.706 337.857 350.493 334.89 349.74 332.55C349.347 331.328 348.965 330.105 348.593 328.881ZM225.475 120.745C224.572 120.745 227.192 120.176 228.028 119.833C228.039 119.829 228.05 119.824 228.06 119.82M228.06 119.82C229.809 119.11 231.66 118.869 233.545 119.195C236.497 119.706 238.507 124.125 239.426 126.49C239.819 127.5 241.106 130.485 240.657 129.499C239.798 127.608 237.733 125.345 236.053 124.119C233.8 122.474 231.132 121.311 228.621 120.152C228.448 120.072 228.26 119.952 228.06 119.82ZM228.06 119.82C227.395 119.379 226.612 118.811 225.886 119.195C224.684 119.831 223.953 123.391 223.332 124.529C221.638 127.636 219.779 130.645 217.907 133.647C216.166 136.441 214.558 139.399 212.676 142.139M212.676 142.139C211.589 143.722 210.41 145.233 209.062 146.596C208.571 147.092 208.077 147.61 207.578 148.138M212.676 142.139C212.428 142.183 212.181 142.225 211.935 142.264C210.771 142.449 208.262 142.428 207.193 142.994C206.867 143.166 206.777 144.992 206.691 145.365C206.423 146.539 207.183 147.195 207.578 148.138M212.676 142.139C215.973 141.549 219.457 140.542 222.74 140.441L222.752 140.44C224.692 140.38 226.839 140.314 227.345 142.675C227.647 144.088 226.917 145.178 226.296 146.368C225.335 148.21 224.963 149.989 225.43 152.067C226.783 158.09 231.167 161.184 235.779 164.559C237.105 165.529 237.486 167.633 238.059 169.027C239.741 173.124 243.148 175.822 245.581 179.422C247.731 182.602 250.006 185.678 252.147 188.859C255.774 194.249 258.037 200.553 261.265 206.184C264.477 211.788 269.851 215.772 272.025 222.096C272.917 224.69 273.473 227.495 274.942 229.846C275.427 230.622 279.21 235.835 280.254 234.975C281.627 233.845 281.689 229.987 281.85 228.501C282.266 224.656 282.419 220.764 282.488 216.898C282.521 215.066 282.437 213.368 282.25 211.737M207.578 148.138C206.328 149.461 205.051 150.845 203.729 152.101M207.578 148.138C207.645 148.298 207.701 148.467 207.74 148.647C208.066 150.153 205.741 151.374 204.64 151.747C204.329 151.853 204.025 151.971 203.729 152.101M203.729 152.101C203.057 152.739 202.374 153.344 201.676 153.89C200.756 154.612 199.775 154.993 198.898 155.659M203.729 152.101C201.876 152.914 200.301 154.189 198.898 155.659M198.898 155.659C198.576 155.902 198.269 156.184 197.983 156.535C197.733 156.841 197.506 157.16 197.297 157.488M198.898 155.659C198.339 156.243 197.808 156.859 197.297 157.488M197.297 157.488C195.852 159.761 195.304 162.492 194.29 164.969C193.976 165.737 193.81 165.456 193.789 164.696C193.724 162.351 195.064 160.376 196.433 158.586C196.715 158.218 197.003 157.851 197.297 157.488ZM282.25 211.737C281.788 207.721 280.693 204.115 279.137 199.938C279.119 199.891 279.086 199.804 279.041 199.686M282.25 211.737C280.718 207.821 279.518 203.814 279.041 199.686M282.25 211.737C283.961 216.113 286.087 220.376 288.079 224.569M279.041 199.686C278.675 198.719 277.555 195.684 278.225 195.493C278.334 195.462 278.423 195.43 278.496 195.402M279.041 199.686C278.961 198.994 278.902 198.298 278.864 197.599M278.496 195.402C278.913 195.239 278.818 195.175 278.818 195.88C278.818 196.456 278.834 197.029 278.864 197.599M278.496 195.402C278.572 196.13 278.697 196.864 278.864 197.599M278.496 195.402C278.42 194.665 278.395 193.935 278.43 193.213C278.451 192.789 279.431 189.65 280.322 190.865C282.802 194.246 284.177 199.907 285.383 203.813C286.618 207.812 287.313 211.853 287.688 215.921M278.864 197.599C279.962 202.442 282.846 207.363 284.995 211.313C285.843 212.871 286.744 214.406 287.688 215.921M288.079 224.569C288.527 225.511 288.967 226.449 289.395 227.384C292.754 234.727 297.017 241.298 303.255 246.51C304.66 247.685 310.587 254.243 312.237 251.138C312.409 250.813 312.697 249.489 312.999 248.086M288.079 224.569C288.058 221.676 287.953 218.792 287.688 215.921M288.079 224.569C288.111 228.951 287.952 233.353 287.868 237.756C287.817 240.404 287.918 242.944 288.483 245.53C289.097 248.336 289.99 251.819 291.492 254.261C292.315 255.597 293.59 256.698 294.479 258.068C296.141 260.631 297.895 263.036 299.311 265.75C300.734 268.477 301.393 271.088 303.916 273.204C305.464 274.502 306.259 275.736 307.358 277.558C310.38 282.566 313.164 287.714 316.18 292.74C317.962 295.71 319.222 299.709 321.537 302.315C322.237 303.101 322.782 303.375 323.315 304.366C324.143 305.903 325.185 307.745 325.185 309.495M312.999 248.086C313.423 246.119 313.877 243.995 314.083 244.253C314.888 245.26 314.229 248.532 314.654 250.069M312.999 248.086C313.555 248.744 314.108 249.404 314.654 250.069M312.999 248.086C311.209 245.972 309.379 243.89 307.609 241.769C300.753 233.551 293.417 225.11 287.688 215.921M314.654 250.069C314.755 250.436 314.918 250.703 315.177 250.819C315.222 250.838 315.267 250.858 315.311 250.878M314.654 250.069C314.874 250.338 315.094 250.607 315.311 250.878M315.311 250.878C316.393 251.351 317.45 251.741 318.209 252.711C319.444 254.288 319.033 255.531 319.645 257.247C319.762 257.573 318.309 254.816 318.255 254.739C317.315 253.421 316.328 252.139 315.311 250.878ZM334.277 278.835C334.421 278.259 335.603 279.186 335.738 279.283C337.732 280.723 339.137 283.071 340.676 284.945C342.258 286.871 343.964 288.693 345.061 290.95C346.207 293.307 347.294 295.709 348.696 297.929C350.801 301.263 352.097 305.015 353.937 308.503C355.53 311.523 357.112 314.426 358.559 317.524C360.343 321.342 362.22 325.103 364.037 328.901C365.673 332.319 367.014 335.661 369.212 338.764C369.96 339.82 371.497 340.187 372.438 341.187C372.757 341.526 374.895 344.018 374.098 344.018M367.935 349.707C366.549 349.892 365.219 350.488 363.853 350.787C361.541 351.292 359.268 351.739 357.005 352.446C356.041 352.747 355.082 352.683 354.661 351.84M356.32 325.767C353.978 325.851 352.031 328.635 350.579 330.271C347.214 334.063 340.426 332.972 335.831 333.247C333.875 333.364 331.957 333.558 330.036 333.931C328.072 334.313 326.642 332.654 325.447 331.268L325.428 331.245C323.294 328.77 321.382 325.647 320.16 322.607C320.091 322.435 319.633 320.573 319.383 320.631C317.831 320.997 315.868 322.94 314.84 324.068C313.595 325.435 313.473 327.319 312.905 329.006C312.329 330.715 311.65 333.144 310.192 334.353C308.624 335.652 305.535 335.149 303.779 334.669C299.805 333.581 296.587 330.913 292.52 330.297C288.033 329.617 283.187 332.634 279.128 334.247C276.534 335.278 273.745 335.926 271.016 336.486C268.479 337.007 265.293 336.872 262.905 337.856C262.53 338.01 262.33 339.037 262.272 339.383C262.003 341.002 262.899 341.406 264.353 341.885C270.242 343.825 275.82 342.165 281.788 342.359C284.978 342.463 288.047 343.996 291.006 345.045C292.922 345.725 294.756 346.183 296.352 347.468C297.574 348.453 298.9 349.133 300.294 349.563M300.294 349.563C302.715 350.31 305.342 350.303 307.993 349.825C309.079 349.63 310.088 349.342 311.142 349.04L311.206 349.022C311.442 348.955 310.714 349.035 310.468 349.049C307.898 349.195 305.321 349.216 302.752 349.391C301.932 349.447 301.113 349.504 300.294 349.563ZM300.294 349.563C297.04 349.796 293.792 350.044 290.532 350.234C289.919 350.269 288.934 350.168 288.767 350.918C288.448 352.356 288.535 353.063 287.108 351.84M254.608 352.99C249.112 352.99 243.642 353.613 238.15 353.765C230.336 353.981 222.571 353.919 214.761 354.403C208.602 354.785 202.374 354.726 196.205 354.608C192.924 354.546 190.599 354.735 188.136 352.58C187.447 351.978 184.897 350.204 187.133 350.118C191.243 349.96 195.015 349.542 199.078 350.482C209.575 352.912 219.385 354.239 230.171 353.719C232.151 353.624 236.507 354.13 238.241 353.127C239.807 352.22 234.786 350.864 234.434 350.71C226.847 347.391 218.863 347.403 210.635 346.881C205.551 346.558 200.502 347.399 195.43 347.245C190.231 347.088 185.416 344.099 180.248 343.461C175.785 342.91 171.09 343.753 166.685 342.937C164.931 342.612 160.387 336.606 162.513 335.391C163.207 334.995 164.99 335.148 165.796 335.027C167.581 334.757 169.421 334.741 171.084 333.887C172.088 333.372 168.925 333.171 167.802 333.066C163.195 332.637 158.277 332.227 153.668 332.702C146.691 333.42 145.054 337.523 144.003 343.598C143.934 343.997 143.833 346.86 142.84 346.753M142.84 346.753C142.796 346.748 142.751 346.738 142.703 346.721C140.841 346.064 139.046 344.336 137.471 342.392M142.84 346.753C143.228 348.576 143.603 351.543 142.293 351.941C138.868 352.984 133.307 351.013 129.96 350.528C129.598 350.475 129.121 350.396 128.585 350.301M142.84 346.753C142.729 346.233 142.618 345.806 142.544 345.558C142.109 344.099 141.243 343.034 139.922 342.344C139.245 341.991 138.393 342.062 137.471 342.392M137.471 342.392C135.956 340.522 134.645 338.452 133.676 336.942C131.886 334.152 131.303 327.96 136.047 327.96C138.326 327.96 140.739 329.455 141.313 326.159C141.954 322.472 136.078 322.921 133.585 321.942C129.376 320.288 126.701 315.862 126.267 311.638C126.059 309.605 125.925 307.181 126.267 305.164C126.5 303.796 128.03 303.887 129.14 303.66C129.422 303.602 131.532 303.382 131.374 302.907C130.974 301.707 126.181 301.014 125.128 300.924C120.501 300.53 116.037 305.211 116.351 309.928C116.474 311.775 117.87 315.891 115.736 316.562C111.376 317.932 113.755 325.645 114.459 328.462C116.288 335.778 118.408 342.641 124.786 347.086C125.227 347.393 125.647 347.724 126.055 348.066M137.471 342.392C134.867 343.323 131.7 346.314 130.307 347.63L130.279 347.656C129.494 348.398 128.063 348.066 127.088 348.066H126.055M126.055 348.066C126.92 348.791 127.733 349.57 128.585 350.301M126.055 348.066H106.07M128.585 350.301C129.563 351.139 130.592 351.913 131.807 352.466C131.981 352.545 132.241 352.622 132.534 352.692M128.585 350.301C125.757 349.8 121.279 348.877 123.167 349.297C124.335 349.556 125.701 350.129 126.587 350.938C128.461 352.653 130.341 352.511 132.534 352.692M132.534 352.692C133.614 352.952 135.14 353.12 134.451 352.967C133.783 352.819 133.146 352.743 132.534 352.692ZM94.0479 326.956C91.7569 327.796 88.6958 329.74 87.8371 332.162C87.1802 334.015 86.7312 336.023 86.193 337.916C85.6413 339.856 85.144 342.148 85.645 344.164C86.6943 348.385 90.8947 350.467 95.0344 349.26C99.4014 347.987 101.796 344.228 101.647 339.779C101.591 338.102 101.019 334.697 99.4916 333.514C98.9657 333.106 98.6161 335.371 98.6147 335.377C98.2499 336.935 97.963 338.512 97.7014 340.09C97.5055 341.272 96.1519 346.718 98.8157 344.054M102.597 308.049C102.912 307.315 103.366 306.614 103.748 305.921C105.131 303.414 106.417 300.839 107.894 298.386C112.379 290.939 118.747 285.011 123.568 277.835C125.405 275.1 126.946 272.261 128.573 269.414M155.864 266.619C156.996 264.213 158.415 261.969 159.28 259.44C160.101 257.042 160.772 254.502 162.185 252.361C163.135 250.922 164.713 249.878 165.893 248.699M137.944 251.165C141.488 245.701 144.681 240.021 148.375 234.651C150.557 231.478 152.794 228.32 155.298 225.39C157.801 222.461 160.395 219.734 162.559 216.53C164.615 213.488 166.312 210.606 167.555 207.159C168.292 205.117 168.819 203.018 169.674 201.021M168.852 244.918C172.662 238.541 176.587 232.252 180.616 226.011C183.429 221.655 186.383 217.352 188.946 212.84C190.376 210.324 191.325 207.669 192.198 204.921C193.339 201.331 193.88 197.341 195.468 193.915C196.235 192.261 196.953 191.262 198.601 190.518C199.57 190.08 200.709 189.903 201.523 189.175C202.056 188.698 202.489 188.02 202.921 187.449C203.448 186.753 203.871 186.287 203.871 185.403M721.202 261.932C721.101 263.311 720.414 264.568 719.92 265.847C719.704 266.405 719.488 266.963 719.271 267.521M719.271 267.521C718.467 269.585 717.65 271.64 716.764 273.677C715.132 277.431 713.392 280.984 711.331 284.45M719.271 267.521C717.788 268.286 716.294 269.021 714.788 269.694C714.095 270.004 716.367 266.003 716.487 265.813C719.45 261.135 722.977 256.719 726.317 252.296C730.143 247.228 733.998 242.177 737.845 237.125C739.693 234.697 741.576 232.152 743.843 230.071C744.059 229.872 746.296 227.82 745.646 229.328C744.909 231.039 743.972 232.691 743.167 234.374C739.995 241.001 737.423 247.942 734.915 254.827C734.33 256.432 733.741 258.035 733.149 259.636M719.271 267.521C721.593 266.322 723.889 265.049 726.163 263.819M711.331 284.45C710.717 285.484 710.074 286.51 709.397 287.532C705.954 292.727 710.536 286.249 716.28 278.027M711.331 284.45C712.644 282.561 713.943 280.663 715.326 278.824C715.73 278.287 716.456 277.29 716.28 278.027M711.331 284.45C710.41 285.777 709.481 287.099 708.512 288.393C699.49 300.441 688.369 311.324 680.688 324.27C680.621 324.383 678.152 328.548 678.729 328.86C679.462 329.257 682.408 325.266 682.751 324.878C683.032 324.56 683.31 324.242 683.586 323.922M716.28 278.027C719.633 273.226 723.384 267.832 726.163 263.819M716.28 278.027C716.254 278.135 716.209 278.28 716.14 278.47C714.375 283.361 712.383 288.101 710.315 292.882C709.491 294.788 708.916 296.781 708.287 298.754C707.886 300.013 708.847 298.636 709.102 298.315C710.922 296.021 712.33 293.48 713.956 291.059C716.088 287.885 718.466 284.851 720.769 281.794C723.451 278.234 726.252 274.718 728.93 271.122M726.163 263.819C727.003 262.607 727.754 261.521 728.38 260.615C728.799 260.007 732.712 254.12 732.748 257.342C732.758 258.216 732.736 259.086 732.685 259.951M726.163 263.819C726.371 263.707 726.578 263.595 726.785 263.484C728.771 262.417 730.761 261.241 732.685 259.951M732.685 259.951C732.662 260.346 732.632 260.74 732.597 261.132M732.685 259.951C732.84 259.847 732.995 259.742 733.149 259.636M732.597 261.132C732.4 263.316 732.02 265.467 731.494 267.588M732.597 261.132C731.366 264.46 730.134 267.786 728.93 271.122M732.597 261.132C732.781 260.634 732.965 260.135 733.149 259.636M731.494 267.588C731.423 267.877 731.348 268.166 731.271 268.455M731.494 267.588C732.103 266.723 732.7 265.851 733.282 264.971M731.494 267.588C730.658 268.777 729.801 269.954 728.93 271.122M731.271 268.455C730.369 271.824 729.108 275.115 727.634 278.335C726.884 279.973 725.977 281.497 725.086 283.06C724.837 283.496 725.63 280.598 725.71 280.36C725.971 279.577 726.236 278.794 726.503 278.014M731.271 268.455C729.531 271.556 727.931 274.749 726.503 278.014M731.271 268.455C731.731 267.635 732.2 266.822 732.679 266.016C732.884 265.67 733.085 265.321 733.282 264.971M726.503 278.014C727.292 275.708 728.104 273.412 728.93 271.122M726.503 278.014C724.81 281.882 723.36 285.849 722.208 289.878C722.182 289.968 722.101 290.354 721.983 290.921M733.149 259.636C736.449 257.379 739.534 254.779 742.04 251.806C742.166 251.657 743.423 249.839 742.768 251.098C740.299 255.847 737.558 260.463 735.071 265.206C732.529 270.054 730.221 275.01 727.599 279.82C725.598 283.492 723.61 287.101 721.983 290.921M721.983 290.921C721.674 291.645 721.379 292.377 721.098 293.118C721.078 293.171 718.931 298.957 719.798 298.957C720.302 298.957 721.48 293.322 721.983 290.921ZM733.282 264.971C734.182 263.376 735.024 261.746 735.99 260.194C737.174 258.29 736.26 260.159 735.765 261.004C734.976 262.348 734.145 263.668 733.282 264.971ZM683.586 323.922C686.522 320.523 689.228 316.993 691.899 313.421M683.586 323.922C683.857 323.462 684.134 323.004 684.415 322.549C686.537 319.116 689.155 316.231 691.899 313.421M683.586 323.922C682.4 325.934 681.313 328.002 680.393 330.143C679.929 331.224 679.712 332.554 679.076 333.552C678.335 334.713 677.586 335.713 677.048 336.994C676.485 338.333 674.832 340.654 675.401 342.192C675.901 343.544 679.205 344.95 680.497 345.179C684.17 345.829 687.758 345.77 691.558 345.77C694.191 345.77 695.839 345.152 698.18 344.251C699.955 343.568 701.895 343.328 703.658 342.799C704.862 342.439 705.898 342.485 707.091 341.821C709.771 340.33 711.275 337.973 713.141 335.678C715.195 333.153 716.876 330.877 716.834 327.611C716.81 325.814 716.358 323.874 716.054 322.093C715.166 316.906 716.745 311.869 712.985 307.293C709.424 302.96 704.57 315.268 704.074 317.199C703.393 319.852 703.117 322.729 702.636 325.434C702.514 326.12 702.367 326.798 702.204 327.472M691.899 313.421C693.133 311.773 694.359 310.115 695.597 308.458C696.632 307.073 697.455 304.762 699.342 304.762C701.174 304.762 697.903 307.279 697.348 307.867C695.547 309.775 693.696 311.582 691.899 313.421ZM702.204 327.472C701.505 330.373 700.515 333.194 699.983 336.15C699.902 336.603 699.121 340.568 699.931 340.707C702.419 341.134 704.402 337.374 704.907 335.543C705.801 332.293 704.409 329.612 702.204 327.472ZM702.204 327.472C701.213 326.51 700.058 325.657 698.874 324.911C694.626 322.237 693.708 324.068 691.402 327.544C690.732 328.554 689.559 330.322 688.666 332.213M688.666 332.213C687.747 334.16 687.125 336.238 687.656 337.753M688.666 332.213C688.703 332.173 688.74 332.133 688.776 332.094L688.801 332.067C689.878 330.903 691.169 329.055 692.806 328.59C696.048 327.67 696.847 331.384 696.204 333.619C695.667 335.486 692.974 340.304 690.448 339.812C688.855 339.502 688.006 338.75 687.656 337.753M688.666 332.213C687.677 333.284 686.716 334.372 686.582 335.864C686.523 336.534 687.003 337.173 687.656 337.753M687.656 337.753C688.527 338.527 689.705 339.196 690.31 339.694M742.852 220.854C746.812 217.453 750.957 214.162 755.218 211.08M755.218 211.08C756.794 209.941 758.386 208.83 759.99 207.753C760.487 207.419 760.971 207.088 761.441 206.757M755.218 211.08C755.197 211.148 755.175 211.216 755.154 211.284C753.791 215.622 752.858 219.968 752.04 224.345M755.218 211.08C755.635 209.769 756.094 208.476 756.589 207.198M761.441 206.757C765.664 203.78 768.778 200.797 770.673 195.874M761.441 206.757C762.234 205.322 763.016 203.882 763.776 202.431C763.975 202.049 764.168 201.64 764.36 201.218M761.441 206.757C758.838 211.468 756.121 216.128 753.734 220.956C753.182 222.075 752.605 223.204 752.04 224.345M770.673 195.874C770.705 195.792 770.736 195.708 770.767 195.625C771.445 193.801 771.681 191.677 771.69 189.476M770.673 195.874C770.573 195.962 770.473 196.049 770.373 196.136C768.407 197.851 766.333 199.495 764.36 201.218M770.673 195.874C772.643 194.15 774.584 192.377 776.354 190.459M771.69 189.476C771.703 186.373 771.268 183.115 770.989 180.318M771.69 189.476C772.258 188.312 772.809 187.146 773.396 186.029C774.476 183.976 775.494 181.882 776.48 179.777M771.69 189.476C770.438 192.04 769.099 194.588 767.088 196.546C765.867 197.734 765.11 199.576 764.36 201.218M770.989 180.318C770.946 179.881 770.906 179.456 770.873 179.044C770.774 177.826 770.708 176.615 770.632 175.406M770.989 180.318C769.303 182.596 768.035 185.565 766.772 187.641C762.933 193.952 759.242 200.347 756.589 207.198M770.989 180.318C771.663 179.408 772.404 178.609 773.238 178.02C773.52 177.822 773.856 177.651 774.226 177.499M770.632 175.406C770.6 174.903 770.566 174.399 770.527 173.896M770.632 175.406C771.92 175.746 773.134 176.549 774.226 177.499M770.632 175.406C770.365 175.336 770.094 175.285 769.821 175.257C769.276 175.201 769.792 174.575 770.527 173.896M770.527 173.896C770.446 172.85 770.343 171.804 770.189 170.754C770.032 169.68 769.789 166.043 768.375 168.451C764.041 175.835 762.455 185.008 760.148 193.091C759.198 196.422 758.189 199.748 757.309 203.096C757.24 203.361 756.819 205.754 756.589 207.198M770.527 173.896C771.376 173.112 772.518 172.26 772.66 172.135C777.313 168.059 781.78 163.95 786.451 160.123M756.589 207.198C756.486 207.84 756.421 208.295 756.442 208.29C758.364 207.874 761.149 204.184 762.514 202.891C763.115 202.322 763.732 201.766 764.36 201.218M776.354 190.459C777.181 189.562 777.971 188.634 778.71 187.664M776.354 190.459C777.008 189.446 777.825 188.282 778.71 187.664M776.354 190.459C775.972 191.05 775.646 191.59 775.394 191.94C772.252 196.298 769.089 200.556 766.299 205.143C760.487 214.7 755.289 224.738 750.177 234.688M778.71 187.664C778.806 187.538 778.901 187.411 778.995 187.283C781.087 184.449 779.219 182.938 777.181 180.579C776.96 180.323 776.726 180.054 776.48 179.777M778.71 187.664C779.05 187.426 779.401 187.268 779.757 187.232C781.279 187.076 782.777 184.483 783.779 183.291C786.127 180.497 788.176 179.761 791.507 178.302C792.863 177.708 794.626 177.853 794.871 176.178C794.892 176.034 794.907 175.891 794.916 175.75M776.48 179.777C775.811 179.025 775.053 178.22 774.226 177.499M776.48 179.777C776.994 178.679 777.499 177.579 778.001 176.479M774.226 177.499C775.365 177.034 776.825 176.761 778.001 176.479M786.451 160.123C788.636 158.332 790.865 156.603 793.179 154.967M786.451 160.123C786.231 159.519 786.108 158.916 786.118 158.318C786.157 156.038 790.692 155.418 793.179 154.967M786.451 160.123C787.514 163.054 790.833 166.018 792.059 168.604C792.636 169.822 793.432 170.992 794.038 172.206M793.179 154.967C795.395 153.4 797.688 151.92 800.093 150.553M793.179 154.967C793.617 154.887 793.991 154.813 794.267 154.736C795.808 154.303 796.851 153.708 798.21 153.047C799.192 152.569 799.75 151.65 800.093 150.553M800.093 150.553C801.327 149.852 802.59 149.181 803.887 148.544C809.935 145.573 816.159 143.03 822.34 140.356C824.549 139.4 828.31 143.915 828.911 145.524C829.841 148.015 828.201 149.152 826.046 149.925C822.75 151.108 819.262 151.297 816.005 152.689C815.057 153.094 814.139 153.593 813.222 154.102M800.093 150.553C800.7 148.613 800.634 146.114 801.048 144.501C802.096 140.421 803.691 137.578 805.99 134.061C807.424 131.867 808.736 129.432 809.933 127.101C810.82 125.373 811.054 123.555 813.35 123.673C815.177 123.766 815.887 125.522 816.662 126.794C817.124 127.554 816.984 128.336 817.608 128.944C818.867 130.169 820.279 131.217 821.656 132.321C823.11 133.486 825.606 134.272 826.808 135.443C829.393 137.959 832.115 141.151 833.879 144.322C836.096 148.306 839.067 151.87 841.239 155.887C844.029 161.047 846.86 166.156 849.755 171.265C852.843 176.713 857.761 182.464 858.666 188.716C859.654 195.531 861.804 202.58 864.081 209.084C864.686 210.811 865.258 212.545 865.805 214.285M813.222 154.102C811.63 154.983 810.041 155.89 808.303 156.373C806.726 156.812 804.9 157.138 803.179 157.674M813.222 154.102C812.222 153.822 811.39 153.807 810.984 154.301C810.667 154.687 809.128 154.861 808.592 154.992C806.88 155.408 805.161 156.348 803.703 157.295C803.586 157.371 803.405 157.503 803.179 157.674M813.222 154.102C815.566 154.757 818.838 156.869 819.737 157.295C822.32 158.518 824.332 159.043 825.179 161.721C825.825 163.765 827.496 165.696 828.908 167.328L829.016 167.453C830.738 169.443 832.633 171.285 834.562 173.082C835.417 173.878 837.724 175.301 837.953 176.639C838.17 177.907 840.854 179.821 841.633 180.784C842.812 182.24 843.991 183.644 844.787 185.415C846.82 189.937 844.484 195.392 846.575 199.667C848.692 203.996 852.953 206.395 856.669 209.237C859.264 211.222 862.439 212.931 865.805 214.285M803.179 157.674C800.982 158.36 798.956 159.39 797.842 161.44C797.322 162.396 801.503 158.946 803.179 157.674ZM865.805 214.285C869.883 215.925 874.243 217.044 878.195 217.501M865.805 214.285C866.72 217.197 867.561 220.126 868.357 223.066M878.195 217.501C878.275 217.51 878.354 217.519 878.433 217.527C880.33 217.735 883.579 216.735 881.009 214.764C880.727 214.547 878.612 212.412 878.275 213.331C877.843 214.509 877.898 215.968 878.195 217.501ZM878.195 217.501C878.747 220.345 880.134 223.442 880.799 225.46C882.55 230.78 884.476 236.138 886.592 241.438M886.592 241.438C889.749 249.344 893.329 257.122 897.385 264.455C900.229 269.597 903.153 274.705 905.612 280.038C906.579 282.134 907.486 284.415 908.554 286.545M886.592 241.438C887.033 242.114 887.357 242.64 887.528 242.961C893.734 254.627 901.128 265.544 905.507 278.067C906.499 280.904 907.519 283.728 908.554 286.545M886.592 241.438C883.321 236.418 873.61 223.115 872.256 223.848C871.754 224.119 871.382 224.695 870.836 224.283C870.744 224.213 870.579 224.017 870.399 223.784M908.554 286.545C908.965 287.364 909.399 288.161 909.87 288.916C912.559 293.226 913.972 287.693 913.603 284.822C913.046 280.482 910.058 275.872 908.188 271.901C906.061 267.384 903.12 263.496 900.066 259.516C899.084 258.237 895.61 254.933 897.017 255.755C897.588 256.089 898.088 256.478 898.699 256.753C911.561 262.532 914.314 280.637 918.387 292.14C920.491 298.083 922.408 303.952 923.959 310.052C924.263 311.244 924.361 312.861 925.116 313.89C927.177 316.698 929.038 319.835 929.847 323.204C930.174 324.561 933.812 330.346 931.635 330.47C930.327 330.545 932.103 333.505 930.426 333.208C928.378 332.846 926.228 331.468 924.695 330.215C921.52 327.618 918.111 326.6 923.329 324.713C925.086 324.078 928.26 321.249 926.115 319.161C924.42 317.511 920.864 314.91 917.764 312.689M908.554 286.545C911.33 294.101 914.217 301.609 916.968 309.182C917.26 309.987 917.465 310.792 917.607 311.599M917.764 312.689C917.445 312.46 917.131 312.235 916.824 312.016M917.764 312.689C917.99 314.671 917.914 316.672 917.914 318.726C917.914 318.804 917.926 318.889 917.947 318.98M917.764 312.689C917.729 312.379 917.687 312.07 917.635 311.761M916.824 312.016C913.203 309.43 910.606 307.606 913.182 308.926C913.818 309.252 916.829 311.011 917.607 311.599M916.824 312.016C916.968 311.746 917.169 311.58 917.441 311.689C917.519 311.721 917.584 311.745 917.635 311.761M916.824 312.016C916.587 312.46 916.501 313.184 916.494 313.429C916.434 315.533 916.863 317.251 917.947 318.98M917.607 311.599C917.825 311.764 917.868 311.837 917.635 311.761M917.607 311.599C917.617 311.653 917.626 311.707 917.635 311.761M917.947 318.98C918.076 319.185 918.213 319.39 918.361 319.596C920.37 322.408 918.244 320.225 917.947 318.98ZM870.399 223.784C869.909 223.151 869.306 222.246 869.759 222.875C869.976 223.177 870.189 223.48 870.399 223.784ZM870.399 223.784C871.53 225.422 872.56 227.089 873.521 228.779M873.521 228.779C877.269 235.365 879.981 242.286 883.585 249.051C885.817 253.242 888.5 257.204 890.991 261.24M873.521 228.779C874.759 230.169 875.952 231.588 877.014 233.085C883.094 241.651 887.099 251.417 890.991 261.24M873.521 228.779C871.813 226.861 870.018 224.999 868.357 223.066M890.991 261.24C892.325 263.401 893.604 265.583 894.73 267.832C896.908 272.184 899.243 276.698 901.722 280.882C903.713 284.241 906.008 287.617 908.609 290.554C910.059 292.192 909.607 292.449 907.952 291.322C905.573 289.701 903.741 288.965 902.3 286.46C897.734 278.523 894.406 269.86 890.991 261.24ZM868.357 223.066C868.12 222.791 867.886 222.514 867.656 222.236C866.418 220.739 864.404 220.171 863.214 218.756C862.093 217.422 860.79 216.092 859.507 214.876M868.357 223.066C870.009 229.17 871.464 235.323 872.966 241.477C873.09 241.987 874.779 245.903 874.175 244.497C873.141 242.094 871.993 239.788 871.073 237.332C868.983 231.753 866.743 226.244 863.687 221.084C862.42 218.944 861.036 216.854 859.507 214.876M859.507 214.876C859.358 214.735 859.209 214.595 859.061 214.457C858.718 214.138 858.412 213.637 858.093 213.142M859.507 214.876C859.089 214.335 858.66 213.803 858.219 213.28C858.184 213.238 858.141 213.192 858.093 213.142M858.093 213.142C857.685 212.509 857.254 211.886 856.695 211.668C856.05 211.417 857.497 212.527 858.093 213.142ZM794.038 172.206C794.597 173.325 794.996 174.482 794.916 175.75M794.038 172.206C793.692 172.303 793.348 172.398 793.005 172.494C792.227 172.71 791.447 172.92 790.666 173.127M794.038 172.206C798.639 170.922 803.453 169.454 806.49 165.841C807.773 164.314 809.166 163.119 810.275 161.44C810.578 160.981 810.984 159.41 810.984 159.956C810.984 162.9 810.211 165.638 808.04 167.785C805.295 170.502 799.803 174.948 795.844 175.615C795.599 175.656 795.278 175.705 794.916 175.75M794.916 175.75C793.716 175.899 792.074 176 791.323 175.615C790.969 175.434 791.07 174.534 791.007 174.233C790.922 173.828 790.809 173.462 790.666 173.127M750.177 234.688C749.715 235.587 749.254 236.486 748.793 237.383C748.268 238.404 747.583 239.047 746.927 239.942C746.764 240.163 747.968 241.128 748.532 241.604M750.177 234.688C750.136 234.904 750.096 235.12 750.055 235.336C749.655 237.434 749.277 239.585 748.532 241.604M750.177 234.688C750.828 231.215 751.399 227.771 752.04 224.345M748.532 241.604C748.636 241.692 748.718 241.763 748.766 241.81C749.623 242.643 747.001 246.131 747.111 244.957C747.183 244.176 747.739 243.448 748.057 242.757C748.231 242.378 748.388 241.994 748.532 241.604ZM752.04 224.345C750.623 227.204 749.273 230.14 748.53 233.187C747.794 236.204 746.684 239.098 745.271 241.887C741.765 248.801 736.466 254.546 731.76 260.668C729.466 263.652 726.536 267.115 725.609 270.852C722.909 281.739 723.694 292.839 721.272 303.757C719.905 309.916 718.049 315.592 718.748 321.72C719 323.919 719.394 326.084 719.699 328.261M778.001 176.479C778.271 176.414 778.526 176.349 778.758 176.28C782.695 175.127 786.696 174.176 790.666 173.127M778.001 176.479C778.175 176.097 778.348 175.715 778.522 175.334C779.075 174.116 779.445 171.04 780.493 170.165C781.235 169.546 781.509 168.525 782.596 168.374C784.529 168.105 786.956 169.719 788.431 170.677C789.513 171.379 790.23 172.111 790.666 173.127M719.699 328.261C719.951 330.054 720.142 331.857 720.142 333.694L720.142 333.857C720.141 336.969 720.141 339.756 721.193 342.752C721.702 344.203 722.359 347.407 724.4 347.512C725.207 347.553 725.749 347.051 726.529 347.051C731.704 347.051 737.074 346.591 742.327 346.591C748.607 346.591 754.248 348.58 760.464 348.996C764.064 349.236 768.209 349.974 771.714 348.791C774.446 347.869 776.819 346.223 779.494 345.209C785.846 342.8 792.162 340.942 798.893 342.087C806.581 343.396 814.317 343.429 821.972 344.39C828.453 345.204 834.783 345.804 841.318 346.13C847.093 346.418 852.825 346.702 858.614 346.565C862.132 346.481 865.115 345.519 868.497 344.774C871.861 344.032 875.101 343.988 878.275 342.497C879.283 342.023 880.017 341.948 881.114 341.985C884.754 342.107 891.692 344.786 894.73 341.985C897.95 339.016 899.515 335.503 898.909 330.982C898.443 327.499 895.393 327.196 892.548 326.786C886.78 325.954 881.082 324.483 875.226 324.483C861.376 324.483 847.768 324.936 833.958 326.069C818.146 327.367 802.206 325.748 786.434 327.144C779.77 327.734 773.023 326.786 766.352 326.786C761.608 326.786 756.988 325.706 752.315 325.046C748.816 324.551 745.279 324.283 741.748 324.125C739.922 324.043 737.308 323.583 735.519 324.253C733.793 324.899 731.869 325.104 730.104 325.66C728.598 326.134 727.347 327.775 726.03 328.142C723.806 328.761 721.815 328.44 719.699 328.261ZM719.699 328.261C719.072 328.208 718.434 328.168 717.776 328.168M953.425 346.668C951.745 346.341 950.56 342.691 950.059 341.325C949.403 339.537 947.631 338.95 947.004 337.242C945.191 332.3 944.894 327.08 941.515 322.725C937.981 318.169 934.349 315.243 929.294 312.291C926.423 310.613 926.394 309.989 926.394 306.746C926.394 304.509 925.859 301.777 925.359 299.588C924.372 295.267 921.073 290.812 917.902 287.793C916.247 286.217 913.804 285.323 912.31 283.609C908.734 279.506 903.278 276.783 899.364 272.973C891.126 264.954 886.109 254.721 881.551 244.392C878.554 237.601 874.621 231.304 871.66 224.531C870.022 220.783 867.416 218.049 865.239 214.752C863.259 211.753 860.461 209.706 858.922 206.334C857.925 204.152 856.483 202.069 855.763 199.781C855.281 198.248 855.348 196.671 854.986 195.144C853.315 188.092 854.682 181.033 849.031 175.636C846.449 173.17 842.975 171.369 840.746 168.579C838.245 165.448 836.086 162.162 833.859 158.851C832.341 156.593 814.775 126.68 810.35 130.27C809.738 130.766 809.749 129.794 809.521 129.262C808.903 127.817 804.918 133.368 804.343 134.05C800.193 138.977 796.48 143.343 793.106 148.769C789.244 154.981 787.365 162.173 786.012 169.285C785.647 171.204 785.424 174.315 784.614 176.09C783.912 177.628 783.76 179.297 782.957 180.879C781.818 183.122 779.802 184.838 778.763 187.079C775.879 193.294 773.577 199.933 770.529 206.032C766.108 214.879 760.161 223.545 754.295 231.538C748.912 238.875 743.629 246.263 738.113 253.49C728.668 265.867 716.242 278.137 712.3 293.489C710.214 301.61 709.794 310.509 708.986 318.818C708.285 326.013 708.286 333.194 708.286 340.408L708.287 341.023C708.287 344.522 710.123 344.226 713.491 342.938C715.012 342.356 719.472 340.967 719.472 338.956V336.461C719.472 334.977 718.709 332.292 720.947 332.655C724.105 333.167 726.835 335.333 729.88 336.259C735 337.817 739.739 338.956 745.13 338.956C748.56 338.956 751.962 337.84 755.409 337.368C761.165 336.58 766.925 336.174 772.693 335.968M772.693 335.968C780.695 335.681 788.712 335.78 796.757 335.78C807.594 335.78 818.397 335.594 829.225 335.352C840.678 335.096 852.792 333.677 864.204 334.999C869.142 335.571 874.008 336.718 878.908 337.69M772.693 335.968C773.422 336.262 774.189 336.508 775.008 336.688C791.555 340.325 808.285 341.25 825.134 342.358C834.609 342.982 843.696 345.417 853.122 346.215C855.353 346.403 857.511 346.572 859.75 346.694C861.745 346.801 863.783 347.794 865.783 347.55C867.116 347.388 869.495 345.468 870.443 344.602C871.9 343.272 873.124 341.694 874.638 340.367C875.79 339.358 877.618 339.054 878.625 337.998C878.723 337.896 878.817 337.793 878.908 337.69M772.693 335.968C768.29 334.187 765.289 330.607 760.716 328.774C756.564 327.109 752.505 326.747 748.133 327.841C742.384 329.28 738.066 329.449 732.21 328.572C731.182 328.418 730.411 327.807 729.466 327.64C727.74 327.334 725.89 327.446 724.132 327.161M878.908 337.69C881.381 338.18 883.862 338.626 886.367 338.931C891.634 339.572 896.941 339.41 902.238 339.41L902.661 339.41C909.106 339.409 915.411 339.408 921.527 341.224C924.09 341.985 926.641 342.714 929.268 343.241C929.917 343.371 931.224 343.446 932.516 343.613M878.908 337.69C880.287 336.134 881.038 334.458 882.379 333.033C884.201 331.099 886.77 330.154 888.93 328.698C891.82 326.751 896.292 324.892 899.83 324.892C902.495 324.892 905.186 325.016 907.83 324.64C910.45 324.268 914.857 323.049 917.255 324.666C918.612 325.58 918.579 329.049 918.938 330.488C919.528 332.858 921.18 334.274 923.08 335.705C926.325 338.148 929.211 341.236 932.516 343.613M932.516 343.613C933.859 343.787 935.186 344.061 935.741 344.602C935.979 344.833 933.847 344.515 933.592 344.35C933.228 344.113 932.87 343.867 932.516 343.613ZM838.662 179.408C838.545 179.408 838.421 179.432 838.294 179.476M838.294 179.476C837.237 179.838 835.921 181.569 836.311 182.47C837.292 184.733 840.114 186.835 841.861 188.429C843.769 190.172 845.83 191.512 848.035 192.673M838.294 179.476C841.326 184.009 844.63 188.283 848.035 192.673M838.294 179.476C836.381 176.617 834.576 173.655 832.921 170.496C829.588 164.132 826.226 158.022 822.041 152.18C816.729 144.765 811.524 137.497 808.537 128.834C807.531 125.919 806.47 122.886 804.327 120.743C803.213 119.629 799.154 128.332 798.203 129.6C794.944 133.946 793.754 139.831 792.627 145.018C790.923 152.852 787.696 161.25 783.769 168.254C780.473 174.134 774.325 177.561 772.233 183.837M848.035 192.673C849.157 193.264 850.315 193.807 851.511 194.334C856.136 196.372 861.507 197.806 865.835 200.403C871.052 203.533 870.333 207.433 872.123 212.486C873.215 215.57 873.563 216.443 875.786 219.101C882.858 227.56 892.51 238.305 892.297 249.992C892.246 252.834 892.061 254.598 892.571 257.537C893.001 260.018 893.299 262.362 893.664 264.682M848.035 192.673C848.77 193.621 849.51 194.574 850.253 195.537C857.933 205.487 863.684 216.155 868.405 227.795C872.429 237.718 876.228 247.495 883.604 255.514C886.692 258.872 890.124 261.84 893.664 264.682M893.664 264.682C894.089 267.376 894.604 270.038 895.523 272.846C897.181 277.91 900.072 279.365 904.763 281.375C909.056 283.215 912.534 285.828 915.425 289.522C917.763 292.51 917.488 296.456 918.268 299.964C918.932 302.953 918.328 306.246 918.869 309.314C919.396 312.301 920.619 317.286 922.915 319.374C926.038 322.213 929.091 325.422 932.1 328.395C932.265 328.557 932.429 328.72 932.593 328.881M893.664 264.682C899.237 269.156 905.08 273.319 910.285 278.204C918.766 286.163 925.212 296.401 927.398 307.947C928.743 315.048 930.496 321.979 932.593 328.881M932.593 328.881C935.316 331.564 938.006 334.179 940.411 337.143L940.446 337.187C941.671 338.696 942.985 340.315 943.363 342.282C943.769 344.393 945.122 345.727 942.652 345.727C936.736 345.727 930.813 347.824 924.883 348.679C918.956 349.533 914.037 347.676 908.262 346.82C905.247 346.373 902.497 347.203 899.569 347.203C897.465 347.203 898.537 345.994 899.514 344.797C903.42 340.014 907.508 335.202 910.395 329.707C911.75 327.128 912.643 323.482 911.871 320.522C910.994 317.162 904.425 313.853 905.091 310.298C905.133 310.076 914.62 314.613 915.807 315.109C918.615 316.282 917.627 317.094 918.486 320.084C920.381 326.681 922.189 334.382 928.109 338.51C928.652 338.888 936.466 342.672 936.583 340.314C936.706 337.857 934.493 334.89 933.74 332.55C933.348 331.328 932.965 330.105 932.593 328.881ZM809.475 120.745C808.572 120.745 811.192 120.176 812.028 119.833C812.039 119.829 812.05 119.824 812.06 119.82M812.06 119.82C813.809 119.11 815.66 118.869 817.545 119.195C820.497 119.706 822.507 124.125 823.426 126.49C823.819 127.5 825.106 130.485 824.657 129.499C823.798 127.608 821.733 125.345 820.053 124.119C817.8 122.474 815.132 121.311 812.621 120.152C812.448 120.072 812.26 119.952 812.06 119.82ZM812.06 119.82C811.395 119.379 810.612 118.811 809.886 119.195C808.684 119.831 807.953 123.391 807.333 124.529C805.638 127.636 803.779 130.645 801.907 133.647C800.166 136.441 798.558 139.399 796.676 142.139M796.676 142.139C795.589 143.722 794.41 145.233 793.062 146.596C792.571 147.092 792.077 147.61 791.578 148.138M796.676 142.139C796.428 142.183 796.181 142.225 795.935 142.264C794.771 142.449 792.262 142.428 791.193 142.994C790.867 143.166 790.777 144.992 790.691 145.365C790.423 146.539 791.183 147.195 791.578 148.138M796.676 142.139C799.973 141.549 803.457 140.542 806.74 140.441L806.752 140.44C808.692 140.38 810.839 140.314 811.345 142.675C811.647 144.088 810.917 145.178 810.296 146.368C809.335 148.21 808.963 149.989 809.43 152.067C810.783 158.09 815.166 161.184 819.779 164.559C821.105 165.529 821.486 167.633 822.059 169.027C823.741 173.124 827.148 175.822 829.581 179.422C831.731 182.602 834.006 185.678 836.147 188.859C839.774 194.249 842.037 200.553 845.265 206.184C848.477 211.788 853.851 215.772 856.025 222.096C856.917 224.69 857.473 227.495 858.943 229.846C859.428 230.622 863.21 235.835 864.254 234.975C865.627 233.845 865.689 229.987 865.85 228.501C866.266 224.656 866.419 220.764 866.488 216.898C866.521 215.066 866.437 213.368 866.25 211.737M791.578 148.138C790.328 149.461 789.051 150.845 787.729 152.101M791.578 148.138C791.645 148.298 791.701 148.467 791.74 148.647C792.066 150.153 789.741 151.374 788.64 151.747C788.329 151.853 788.025 151.971 787.729 152.101M787.729 152.101C787.057 152.739 786.374 153.344 785.676 153.89C784.756 154.612 783.776 154.993 782.898 155.659M787.729 152.101C785.876 152.914 784.301 154.189 782.898 155.659M782.898 155.659C782.576 155.902 782.269 156.184 781.983 156.535C781.733 156.841 781.506 157.16 781.297 157.488M782.898 155.659C782.339 156.243 781.808 156.859 781.297 157.488M781.297 157.488C779.852 159.761 779.304 162.492 778.29 164.969C777.976 165.737 777.81 165.456 777.789 164.696C777.724 162.351 779.064 160.376 780.433 158.586C780.715 158.218 781.003 157.851 781.297 157.488ZM866.25 211.737C865.788 207.721 864.693 204.115 863.137 199.938C863.119 199.891 863.086 199.804 863.041 199.686M866.25 211.737C864.718 207.821 863.518 203.814 863.041 199.686M866.25 211.737C867.961 216.113 870.087 220.376 872.079 224.569M863.041 199.686C862.675 198.719 861.555 195.684 862.225 195.493C862.334 195.462 862.423 195.43 862.496 195.402M863.041 199.686C862.961 198.994 862.902 198.298 862.864 197.599M862.496 195.402C862.913 195.239 862.818 195.175 862.818 195.88C862.818 196.456 862.834 197.029 862.864 197.599M862.496 195.402C862.572 196.13 862.697 196.864 862.864 197.599M862.496 195.402C862.42 194.665 862.395 193.935 862.43 193.213C862.451 192.789 863.431 189.65 864.322 190.865C866.802 194.246 868.177 199.907 869.383 203.813C870.618 207.812 871.313 211.853 871.688 215.921M862.864 197.599C863.962 202.442 866.846 207.363 868.995 211.313C869.843 212.871 870.744 214.406 871.688 215.921M872.079 224.569C872.527 225.511 872.967 226.449 873.395 227.384C876.754 234.727 881.017 241.298 887.255 246.51C888.661 247.685 894.587 254.243 896.237 251.138C896.409 250.813 896.697 249.489 896.999 248.086M872.079 224.569C872.058 221.676 871.953 218.792 871.688 215.921M872.079 224.569C872.111 228.951 871.952 233.353 871.868 237.756C871.817 240.404 871.918 242.944 872.483 245.53C873.097 248.336 873.99 251.819 875.492 254.261C876.315 255.597 877.59 256.698 878.479 258.068C880.141 260.631 881.895 263.036 883.311 265.75C884.734 268.477 885.393 271.088 887.916 273.204C889.464 274.502 890.259 275.736 891.358 277.558C894.38 282.566 897.164 287.714 900.18 292.74C901.962 295.71 903.222 299.709 905.537 302.315C906.237 303.101 906.782 303.375 907.315 304.366C908.143 305.903 909.185 307.745 909.185 309.495M896.999 248.086C897.423 246.119 897.877 243.995 898.083 244.253C898.888 245.26 898.229 248.532 898.654 250.069M896.999 248.086C897.555 248.744 898.108 249.404 898.654 250.069M896.999 248.086C895.209 245.972 893.379 243.89 891.609 241.769C884.753 233.551 877.417 225.11 871.688 215.921M898.654 250.069C898.755 250.436 898.918 250.703 899.177 250.819C899.222 250.838 899.267 250.858 899.311 250.878M898.654 250.069C898.874 250.338 899.094 250.607 899.311 250.878M899.311 250.878C900.393 251.351 901.45 251.741 902.209 252.711C903.444 254.288 903.033 255.531 903.645 257.247C903.762 257.573 902.309 254.816 902.255 254.739C901.315 253.421 900.328 252.139 899.311 250.878ZM918.277 278.835C918.421 278.259 919.603 279.186 919.738 279.283C921.732 280.723 923.137 283.071 924.676 284.945C926.258 286.871 927.964 288.693 929.062 290.95C930.207 293.307 931.294 295.709 932.696 297.929C934.801 301.263 936.097 305.015 937.937 308.503C939.53 311.523 941.112 314.426 942.559 317.524C944.343 321.342 946.22 325.103 948.037 328.901C949.673 332.319 951.014 335.661 953.212 338.764C953.96 339.82 955.497 340.187 956.438 341.187C956.757 341.526 958.895 344.018 958.098 344.018M951.935 349.707C950.549 349.892 949.219 350.488 947.853 350.787C945.541 351.292 943.268 351.739 941.005 352.446C940.041 352.747 939.082 352.683 938.661 351.84M940.32 325.767C937.978 325.851 936.031 328.635 934.579 330.271C931.214 334.063 924.426 332.972 919.831 333.247C917.875 333.364 915.957 333.558 914.036 333.931C912.072 334.313 910.642 332.654 909.447 331.268L909.428 331.245C907.294 328.77 905.382 325.647 904.16 322.607C904.091 322.435 903.633 320.573 903.383 320.631C901.831 320.997 899.868 322.94 898.84 324.068C897.595 325.435 897.473 327.319 896.905 329.006C896.329 330.715 895.65 333.144 894.192 334.353C892.624 335.652 889.535 335.149 887.779 334.669C883.805 333.581 880.587 330.913 876.52 330.297C872.033 329.617 867.187 332.634 863.128 334.247C860.534 335.278 857.745 335.926 855.016 336.486C852.479 337.007 849.293 336.872 846.905 337.856C846.53 338.01 846.33 339.037 846.273 339.383C846.003 341.002 846.899 341.406 848.353 341.885C854.242 343.825 859.82 342.165 865.788 342.359C868.978 342.463 872.047 343.996 875.006 345.045C876.922 345.725 878.756 346.183 880.352 347.468C881.574 348.453 882.9 349.133 884.294 349.563M884.294 349.563C886.715 350.31 889.342 350.303 891.993 349.825C893.079 349.63 894.088 349.342 895.142 349.04L895.206 349.022C895.442 348.955 894.714 349.035 894.468 349.049C891.897 349.195 889.321 349.216 886.752 349.391C885.932 349.447 885.113 349.504 884.294 349.563ZM884.294 349.563C881.04 349.796 877.792 350.044 874.532 350.234C873.919 350.269 872.934 350.168 872.767 350.918C872.448 352.356 872.535 353.063 871.108 351.84M838.609 352.99C833.112 352.99 827.642 353.613 822.15 353.765C814.336 353.981 806.571 353.919 798.761 354.403C792.602 354.785 786.374 354.726 780.205 354.608C776.924 354.546 774.599 354.735 772.136 352.58C771.447 351.978 768.897 350.204 771.133 350.118C775.243 349.96 779.015 349.542 783.078 350.482C793.575 352.912 803.385 354.239 814.171 353.719C816.151 353.624 820.507 354.13 822.241 353.127C823.807 352.22 818.786 350.864 818.434 350.71C810.847 347.391 802.863 347.403 794.635 346.881C789.551 346.558 784.502 347.399 779.43 347.245C774.231 347.088 769.416 344.099 764.248 343.461C759.785 342.91 755.09 343.753 750.685 342.937C748.931 342.612 744.387 336.606 746.513 335.391C747.207 334.995 748.99 335.148 749.796 335.027C751.581 334.757 753.421 334.741 755.084 333.887C756.087 333.372 752.925 333.171 751.802 333.066C747.195 332.637 742.277 332.227 737.668 332.702C730.691 333.42 729.054 337.523 728.003 343.598C727.934 343.997 727.833 346.86 726.84 346.753M726.84 346.753C726.796 346.748 726.75 346.738 726.703 346.721C724.841 346.064 723.046 344.336 721.471 342.392M726.84 346.753C727.227 348.576 727.603 351.543 726.293 351.941C722.868 352.984 717.307 351.013 713.96 350.528C713.598 350.475 713.121 350.396 712.585 350.301M726.84 346.753C726.729 346.233 726.618 345.806 726.544 345.558C726.109 344.099 725.243 343.034 723.922 342.344C723.245 341.991 722.393 342.062 721.471 342.392M721.471 342.392C719.956 340.522 718.645 338.452 717.676 336.942C715.886 334.152 715.303 327.96 720.047 327.96C722.326 327.96 724.739 329.455 725.313 326.159C725.954 322.472 720.078 322.921 717.585 321.942C713.376 320.288 710.701 315.862 710.267 311.638C710.059 309.605 709.925 307.181 710.267 305.164C710.5 303.796 712.03 303.887 713.14 303.66C713.422 303.602 715.532 303.382 715.374 302.907C714.973 301.707 710.181 301.014 709.128 300.924C704.501 300.53 700.037 305.211 700.351 309.928C700.474 311.775 701.87 315.891 699.736 316.562C695.376 317.932 697.755 325.645 698.459 328.462C700.288 335.778 702.408 342.641 708.786 347.086C709.227 347.393 709.647 347.724 710.055 348.066M721.471 342.392C718.867 343.323 715.7 346.314 714.307 347.63L714.279 347.656C713.494 348.398 712.063 348.066 711.088 348.066H710.055M710.055 348.066C710.92 348.791 711.733 349.57 712.585 350.301M710.055 348.066H690.07M712.585 350.301C713.563 351.139 714.592 351.913 715.807 352.466C715.981 352.545 716.241 352.622 716.534 352.692M712.585 350.301C709.757 349.8 705.279 348.877 707.167 349.297C708.335 349.556 709.701 350.129 710.587 350.938C712.462 352.653 714.341 352.511 716.534 352.692M716.534 352.692C717.614 352.952 719.14 353.12 718.451 352.967C717.783 352.819 717.146 352.743 716.534 352.692ZM678.048 326.956C675.757 327.796 672.696 329.74 671.837 332.162C671.18 334.015 670.731 336.023 670.193 337.916C669.641 339.856 669.144 342.148 669.645 344.164C670.694 348.385 674.895 350.467 679.034 349.26C683.401 347.987 685.796 344.228 685.647 339.779C685.591 338.102 685.019 334.697 683.492 333.514C682.966 333.106 682.616 335.371 682.615 335.377C682.25 336.935 681.963 338.512 681.701 340.09C681.505 341.272 680.152 346.718 682.816 344.054M686.597 308.049C686.912 307.315 687.366 306.614 687.748 305.921C689.131 303.414 690.417 300.839 691.894 298.386C696.379 290.939 702.747 285.011 707.568 277.835C709.405 275.1 710.946 272.261 712.573 269.414M739.864 266.619C740.996 264.213 742.415 261.969 743.28 259.44C744.101 257.042 744.772 254.502 746.185 252.361C747.135 250.922 748.713 249.878 749.893 248.699M721.944 251.165C725.488 245.701 728.681 240.021 732.375 234.651C734.557 231.478 736.794 228.32 739.298 225.39C741.801 222.461 744.394 219.734 746.559 216.53C748.615 213.488 750.312 210.606 751.555 207.159C752.292 205.117 752.819 203.018 753.674 201.021M752.852 244.918C756.662 238.541 760.587 232.252 764.616 226.011C767.429 221.655 770.383 217.352 772.946 212.84C774.376 210.324 775.325 207.669 776.198 204.921C777.339 201.331 777.88 197.341 779.468 193.915C780.235 192.261 780.953 191.262 782.601 190.518C783.57 190.08 784.709 189.903 785.523 189.175C786.056 188.698 786.489 188.02 786.921 187.449C787.448 186.753 787.871 186.287 787.871 185.403M79.7275 334.609L209.459 124.562C220.049 106.095 235.935 106.868 245.466 124.562L376.256 334.609C383.934 345.522 374.668 356 358.782 356H94.0244C84.2284 356 76.5505 342.945 79.7275 334.609ZM137.445 305.939L216.316 177.923C224.505 165.606 229.36 167.82 238.206 177.923L317.721 305.939C318.953 315.181 316.387 317.831 307.098 318.977H146.137C139.089 316.625 137.832 313.286 137.445 305.939ZM663.728 334.609L793.459 124.562C804.049 106.095 819.935 106.868 829.466 124.562L960.256 334.609C967.934 345.522 958.668 356 942.782 356H678.024C668.228 356 660.55 342.945 663.728 334.609ZM721.445 305.939L800.316 177.923C808.505 165.606 813.36 167.82 822.206 177.923L901.721 305.939C902.953 315.181 900.387 317.831 891.098 318.977H730.137C723.089 316.625 721.832 313.286 721.445 305.939Z" stroke="white" stroke-width="10" stroke-linecap="round"/>
<path d="M316 131L443 336M899 131L1026 336M1139.63 133L1104.06 248.007M1105.33 251.371L985.001 247.912M1105 249.399L1185.77 335.846M1217.49 130.014L1188.24 224.613M1187.82 227.138L1288.75 335.155M1140.15 131.113L899.001 130.903M1372.66 129.619L1219.6 129.485M1372.66 224.202L1219.6 224.068M1372.66 335.202L1289.26 335.129M516.145 201.125L443.5 336.485M716.598 131L589.598 336M516.453 201.125L589.097 336.485" stroke="white" stroke-width="50" stroke-linecap="round"/>
<path d="M71 530.92V387.981H121.326C135.498 387.981 147.594 390.788 157.613 396.401C167.698 401.948 175.41 410.005 180.749 420.571C186.154 431.137 188.857 443.948 188.857 459.005V459.203C188.857 474.259 186.187 487.17 180.848 497.934C175.509 508.632 167.797 516.821 157.712 522.5C147.693 528.113 135.564 530.92 121.326 530.92H71ZM93.1476 511.703H119.25C129.335 511.703 137.871 509.689 144.858 505.66C151.845 501.632 157.152 495.722 160.777 487.929C164.402 480.137 166.215 470.627 166.215 459.401V459.203C166.215 448.042 164.369 438.599 160.678 430.873C157.053 423.08 151.746 417.203 144.759 413.241C137.838 409.212 129.335 407.198 119.25 407.198H93.1476V511.703Z" fill="white"/>
<path d="M252.235 533C242.281 533 233.581 530.821 226.132 526.462C218.75 522.038 213.015 515.797 208.928 507.741C204.841 499.618 202.798 489.976 202.798 478.816V478.618C202.798 467.524 204.841 457.948 208.928 449.892C213.081 441.835 218.848 435.627 226.231 431.269C233.679 426.91 242.314 424.731 252.136 424.731C262.023 424.731 270.658 426.91 278.041 431.269C285.489 435.561 291.257 441.736 295.343 449.792C299.496 457.849 301.572 467.458 301.572 478.618V478.816C301.572 490.042 299.496 499.684 295.343 507.741C291.257 515.797 285.522 522.038 278.139 526.462C270.757 530.821 262.122 533 252.235 533ZM252.333 514.972C257.87 514.972 262.682 513.552 266.769 510.712C270.856 507.873 274.02 503.778 276.261 498.429C278.502 493.014 279.622 486.476 279.622 478.816V478.618C279.622 471.024 278.502 464.552 276.261 459.203C274.02 453.788 270.823 449.693 266.67 446.92C262.517 444.08 257.673 442.66 252.136 442.66C246.665 442.66 241.853 444.08 237.7 446.92C233.613 449.759 230.417 453.854 228.11 459.203C225.803 464.552 224.649 471.024 224.649 478.618V478.816C224.649 486.476 225.77 493.014 228.011 498.429C230.318 503.778 233.548 507.873 237.7 510.712C241.853 513.552 246.731 514.972 252.333 514.972Z" fill="white"/>
<path d="M362.874 533C352.789 533 344.022 530.788 336.573 526.363C329.191 521.939 323.489 515.665 319.468 507.542C315.513 499.42 313.536 489.811 313.536 478.717V478.618C313.536 467.59 315.546 458.047 319.567 449.991C323.654 441.934 329.389 435.726 336.771 431.368C344.154 426.943 352.789 424.731 362.676 424.731C371.575 424.731 379.254 426.448 385.713 429.882C392.239 433.25 397.348 437.741 401.039 443.354C404.73 448.967 406.872 455.042 407.466 461.58L407.564 462.373H387.098L386.9 461.481C385.779 456.396 383.209 452.005 379.188 448.307C375.233 444.542 369.762 442.66 362.775 442.66C357.304 442.66 352.492 444.146 348.339 447.118C344.253 450.024 341.056 454.184 338.749 459.599C336.508 465.014 335.387 471.42 335.387 478.816V478.915C335.387 486.509 336.541 493.014 338.848 498.429C341.155 503.778 344.351 507.873 348.438 510.712C352.591 513.552 357.436 514.972 362.973 514.972C369.564 514.972 374.87 513.255 378.891 509.821C382.978 506.321 385.681 501.764 386.999 496.151L387.098 495.358H407.663V496.052C406.872 502.986 404.499 509.259 400.544 514.873C396.655 520.42 391.481 524.844 385.021 528.146C378.628 531.382 371.245 533 362.874 533Z" fill="white"/>
<path d="M458.385 533C450.805 533 444.312 531.448 438.907 528.344C433.568 525.175 429.481 520.684 426.647 514.873C423.813 509.061 422.395 502.16 422.395 494.17V426.712H443.95V490.108C443.95 497.967 445.762 504.009 449.388 508.236C453.079 512.396 458.616 514.476 465.999 514.476C471.008 514.476 475.359 513.354 479.05 511.108C482.807 508.863 485.674 505.726 487.652 501.698C489.695 497.604 490.717 492.882 490.717 487.533V426.712H512.172V530.92H490.717V515.269H490.222C487.52 520.552 483.499 524.844 478.16 528.146C472.887 531.382 466.295 533 458.385 533Z" fill="white"/>
<path d="M533.232 530.92V426.712H554.787V442.858H555.182C557.423 437.377 561.082 432.986 566.157 429.684C571.233 426.382 577.165 424.731 583.954 424.731C588.7 424.731 592.985 425.524 596.808 427.108C600.697 428.693 604.026 431.038 606.794 434.142C609.562 437.179 611.606 440.877 612.924 445.236H613.418C615.198 441.009 617.67 437.377 620.834 434.34C624.064 431.236 627.788 428.858 632.007 427.208C636.291 425.557 640.905 424.731 645.849 424.731C652.704 424.731 658.669 426.184 663.745 429.09C668.82 431.929 672.775 435.925 675.61 441.075C678.444 446.226 679.861 452.269 679.861 459.203V530.92H658.307V464.453C658.307 457.717 656.593 452.5 653.166 448.802C649.738 445.038 644.827 443.156 638.433 443.156C634.215 443.156 630.491 444.113 627.261 446.028C624.097 447.943 621.592 450.618 619.746 454.052C617.967 457.486 617.077 461.382 617.077 465.741V530.92H596.017V462.868C596.017 456.792 594.237 452.005 590.678 448.505C587.184 444.939 582.405 443.156 576.341 443.156C572.188 443.156 568.464 444.179 565.168 446.226C561.938 448.208 559.401 450.948 557.555 454.448C555.709 457.948 554.787 461.976 554.787 466.533V530.92H533.232Z" fill="white"/>
<path d="M744.821 533C734.67 533 725.903 530.821 718.521 526.462C711.204 522.038 705.568 515.797 701.613 507.741C697.724 499.618 695.78 490.075 695.78 479.113V479.014C695.78 468.184 697.757 458.708 701.712 450.585C705.667 442.396 711.237 436.057 718.422 431.566C725.607 427.009 734.044 424.731 743.733 424.731C753.489 424.731 761.86 426.91 768.847 431.269C775.9 435.561 781.338 441.67 785.161 449.594C788.984 457.453 790.896 466.599 790.896 477.033V484.264H706.359V469.108H780.514L769.935 483.274V474.953C769.935 467.623 768.814 461.547 766.573 456.726C764.398 451.84 761.333 448.208 757.378 445.83C753.489 443.453 748.974 442.264 743.832 442.264C738.757 442.264 734.209 443.519 730.188 446.028C726.167 448.538 723.003 452.236 720.696 457.123C718.389 461.943 717.235 467.887 717.235 474.953V483.274C717.235 490.009 718.356 495.788 720.597 500.608C722.904 505.363 726.167 509.028 730.386 511.604C734.604 514.113 739.581 515.368 745.315 515.368C749.534 515.368 753.258 514.741 756.488 513.486C759.718 512.165 762.387 510.448 764.497 508.335C766.672 506.156 768.188 503.745 769.045 501.104L769.342 500.311H789.709L789.512 501.401C788.655 505.495 787.04 509.425 784.667 513.189C782.294 516.953 779.196 520.354 775.373 523.392C771.616 526.363 767.166 528.708 762.025 530.425C756.884 532.142 751.149 533 744.821 533Z" fill="white"/>
<path d="M807.309 530.92V426.712H828.863V442.462H829.259C832.027 437.179 836.081 432.92 841.42 429.684C846.759 426.382 853.351 424.731 861.195 424.731C872.598 424.731 881.431 428.198 887.693 435.132C893.955 442 897.086 451.443 897.086 463.462V530.92H875.63V467.623C875.63 459.764 873.785 453.722 870.093 449.495C866.468 445.269 860.964 443.156 853.582 443.156C848.572 443.156 844.189 444.278 840.431 446.524C836.74 448.769 833.873 451.906 831.829 455.934C829.852 459.962 828.863 464.717 828.863 470.198V530.92H807.309Z" fill="white"/>
<path d="M954.333 533C944.051 533 936.371 530.689 931.296 526.066C926.286 521.377 923.782 513.816 923.782 503.382V443.75H908.852V426.712H923.782V399.571H945.731V426.712H965.209V443.75H945.731V502.193C945.731 507.476 946.885 511.108 949.192 513.09C951.499 515.005 954.927 515.962 959.475 515.962C960.595 515.962 961.617 515.929 962.54 515.863C963.529 515.731 964.418 515.632 965.209 515.566V532.108C963.957 532.307 962.375 532.505 960.463 532.703C958.552 532.901 956.509 533 954.333 533Z" fill="white"/>
<path d="M1011.78 532.802C1004.86 532.802 998.793 531.481 993.586 528.84C988.379 526.198 984.325 522.5 981.425 517.745C978.524 512.991 977.074 507.509 977.074 501.302V501.104C977.074 491.991 980.436 484.792 987.159 479.509C993.949 474.16 1003.47 471.123 1015.73 470.396L1055.09 468.019V483.075L1018.6 485.354C1012.21 485.75 1007.26 487.302 1003.77 490.009C1000.34 492.651 998.629 496.184 998.629 500.608V500.807C998.629 505.363 1000.34 508.962 1003.77 511.604C1007.26 514.245 1011.88 515.566 1017.61 515.566C1022.62 515.566 1027.1 514.542 1031.06 512.495C1035.08 510.448 1038.24 507.642 1040.55 504.075C1042.86 500.443 1044.01 496.382 1044.01 491.892V460.887C1044.01 455.142 1042.23 450.651 1038.67 447.415C1035.11 444.113 1030 442.462 1023.35 442.462C1017.22 442.462 1012.27 443.783 1008.52 446.425C1004.82 449.066 1002.52 452.467 1001.59 456.627L1001.4 457.519H981.227L981.326 456.429C981.853 450.42 983.863 445.038 987.357 440.283C990.851 435.462 995.695 431.665 1001.89 428.892C1008.09 426.118 1015.44 424.731 1023.94 424.731C1032.44 424.731 1039.79 426.151 1045.99 428.991C1052.18 431.83 1057 435.825 1060.42 440.976C1063.85 446.127 1065.57 452.17 1065.57 459.104V530.92H1044.01V514.476H1043.62C1041.57 518.241 1038.94 521.509 1035.71 524.283C1032.48 526.991 1028.82 529.104 1024.73 530.623C1020.71 532.075 1016.39 532.802 1011.78 532.802Z" fill="white"/>
<path d="M1122.81 533C1112.53 533 1104.85 530.689 1099.78 526.066C1094.77 521.377 1092.26 513.816 1092.26 503.382V443.75H1077.33V426.712H1092.26V399.571H1114.21V426.712H1133.69V443.75H1114.21V502.193C1114.21 507.476 1115.36 511.108 1117.67 513.09C1119.98 515.005 1123.41 515.962 1127.95 515.962C1129.08 515.962 1130.1 515.929 1131.02 515.863C1132.01 515.731 1132.9 515.632 1133.69 515.566V532.108C1132.44 532.307 1130.86 532.505 1128.94 532.703C1127.03 532.901 1124.99 533 1122.81 533Z" fill="white"/>
<path d="M1152.08 530.92V426.712H1173.63V530.92H1152.08ZM1162.86 410.665C1159.43 410.665 1156.5 409.476 1154.06 407.099C1151.62 404.656 1150.4 401.75 1150.4 398.382C1150.4 394.882 1151.62 391.943 1154.06 389.566C1156.5 387.189 1159.43 386 1162.86 386C1166.35 386 1169.28 387.189 1171.66 389.566C1174.1 391.943 1175.31 394.882 1175.31 398.382C1175.31 401.75 1174.1 404.656 1171.66 407.099C1169.28 409.476 1166.35 410.665 1162.86 410.665Z" fill="white"/>
<path d="M1240.37 533C1230.42 533 1221.72 530.821 1214.27 526.462C1206.89 522.038 1201.15 515.797 1197.07 507.741C1192.98 499.618 1190.94 489.976 1190.94 478.816V478.618C1190.94 467.524 1192.98 457.948 1197.07 449.892C1201.22 441.835 1206.99 435.627 1214.37 431.269C1221.82 426.91 1230.45 424.731 1240.27 424.731C1250.16 424.731 1258.8 426.91 1266.18 431.269C1273.63 435.561 1279.4 441.736 1283.48 449.792C1287.63 457.849 1289.71 467.458 1289.71 478.618V478.816C1289.71 490.042 1287.63 499.684 1283.48 507.741C1279.4 515.797 1273.66 522.038 1266.28 526.462C1258.9 530.821 1250.26 533 1240.37 533ZM1240.47 514.972C1246.01 514.972 1250.82 513.552 1254.91 510.712C1258.99 507.873 1262.16 503.778 1264.4 498.429C1266.64 493.014 1267.76 486.476 1267.76 478.816V478.618C1267.76 471.024 1266.64 464.552 1264.4 459.203C1262.16 453.788 1258.96 449.693 1254.81 446.92C1250.66 444.08 1245.81 442.66 1240.27 442.66C1234.8 442.66 1229.99 444.08 1225.84 446.92C1221.75 449.759 1218.56 453.854 1216.25 459.203C1213.94 464.552 1212.79 471.024 1212.79 478.618V478.816C1212.79 486.476 1213.91 493.014 1216.15 498.429C1218.46 503.778 1221.69 507.873 1225.84 510.712C1229.99 513.552 1234.87 514.972 1240.47 514.972Z" fill="white"/>
<path d="M1306.22 530.92V426.712H1327.78V442.462H1328.17C1330.94 437.179 1335 432.92 1340.33 429.684C1345.67 426.382 1352.27 424.731 1360.11 424.731C1371.51 424.731 1380.35 428.198 1386.61 435.132C1392.87 442 1396 451.443 1396 463.462V530.92H1374.54V467.623C1374.54 459.764 1372.7 453.722 1369.01 449.495C1365.38 445.269 1359.88 443.156 1352.5 443.156C1347.49 443.156 1343.1 444.278 1339.35 446.524C1335.65 448.769 1332.79 451.906 1330.74 455.934C1328.77 459.962 1327.78 464.717 1327.78 470.198V530.92H1306.22Z" fill="white"/>
</svg>
